<?xml version="1.0" encoding="utf-8" standalone="no"?>
<!DOCTYPE svg PUBLIC "-//W3C//DTD SVG 1.1//EN"
  "http://www.w3.org/Graphics/SVG/1.1/DTD/svg11.dtd">
<svg xmlns:xlink="http://www.w3.org/1999/xlink" width="720pt" height="360pt" viewBox="0 0 720 360" xmlns="http://www.w3.org/2000/svg" version="1.1">
 <metadata>
  <rdf:RDF xmlns:dc="http://purl.org/dc/elements/1.1/" xmlns:cc="http://creativecommons.org/ns#" xmlns:rdf="http://www.w3.org/1999/02/22-rdf-syntax-ns#">
   <cc:Work>
    <dc:type rdf:resource="http://purl.org/dc/dcmitype/StillImage"/>
    <dc:date>2024-06-08T21:59:40.238932</dc:date>
    <dc:format>image/svg+xml</dc:format>
    <dc:creator>
     <cc:Agent>
      <dc:title>Matplotlib v3.9.0, https://matplotlib.org/</dc:title>
     </cc:Agent>
    </dc:creator>
   </cc:Work>
  </rdf:RDF>
 </metadata>
 <defs>
  <style type="text/css">*{stroke-linejoin: round; stroke-linecap: butt}</style>
 </defs>
 <g id="figure_1">
  <g id="patch_1">
   <path d="M 0 360 
L 720 360 
L 720 0 
L 0 0 
z
" style="fill: #ffffff"/>
  </g>
  <g id="axes_1">
   <g id="patch_2">
    <path d="M 45.01899 326.27226 
L 354.493125 326.27226 
L 354.493125 28.118845 
L 45.01899 28.118845 
z
" style="fill: #ffffff"/>
   </g>
   <g id="matplotlib.axis_1">
    <g id="xtick_1">
     <g id="line2d_1">
      <defs>
       <path id="maa15390a62" d="M 0 0 
L 0 -3.5 
" style="stroke: #000000; stroke-width: 0.8"/>
      </defs>
      <g>
       <use xlink:href="#maa15390a62" x="59.085996" y="326.27226" style="stroke: #000000; stroke-width: 0.8"/>
      </g>
     </g>
     <g id="text_1">
      <!-- 0 -->
      <g transform="translate(55.268496 338.890385) scale(0.12 -0.12)">
       <defs>
        <path id="DejaVuSans-30" d="M 2034 4250 
Q 1547 4250 1301 3770 
Q 1056 3291 1056 2328 
Q 1056 1369 1301 889 
Q 1547 409 2034 409 
Q 2525 409 2770 889 
Q 3016 1369 3016 2328 
Q 3016 3291 2770 3770 
Q 2525 4250 2034 4250 
z
M 2034 4750 
Q 2819 4750 3233 4129 
Q 3647 3509 3647 2328 
Q 3647 1150 3233 529 
Q 2819 -91 2034 -91 
Q 1250 -91 836 529 
Q 422 1150 422 2328 
Q 422 3509 836 4129 
Q 1250 4750 2034 4750 
z
" transform="scale(0.015625)"/>
       </defs>
       <use xlink:href="#DejaVuSans-30"/>
      </g>
     </g>
    </g>
    <g id="xtick_2">
     <g id="line2d_2">
      <g>
       <use xlink:href="#maa15390a62" x="115.354021" y="326.27226" style="stroke: #000000; stroke-width: 0.8"/>
      </g>
     </g>
     <g id="text_2">
      <!-- 2 -->
      <g transform="translate(111.536521 338.890385) scale(0.12 -0.12)">
       <defs>
        <path id="DejaVuSans-32" d="M 1228 531 
L 3431 531 
L 3431 0 
L 469 0 
L 469 531 
Q 828 903 1448 1529 
Q 2069 2156 2228 2338 
Q 2531 2678 2651 2914 
Q 2772 3150 2772 3378 
Q 2772 3750 2511 3984 
Q 2250 4219 1831 4219 
Q 1534 4219 1204 4116 
Q 875 4013 500 3803 
L 500 4441 
Q 881 4594 1212 4672 
Q 1544 4750 1819 4750 
Q 2544 4750 2975 4387 
Q 3406 4025 3406 3419 
Q 3406 3131 3298 2873 
Q 3191 2616 2906 2266 
Q 2828 2175 2409 1742 
Q 1991 1309 1228 531 
z
" transform="scale(0.015625)"/>
       </defs>
       <use xlink:href="#DejaVuSans-32"/>
      </g>
     </g>
    </g>
    <g id="xtick_3">
     <g id="line2d_3">
      <g>
       <use xlink:href="#maa15390a62" x="171.622045" y="326.27226" style="stroke: #000000; stroke-width: 0.8"/>
      </g>
     </g>
     <g id="text_3">
      <!-- 4 -->
      <g transform="translate(167.804545 338.890385) scale(0.12 -0.12)">
       <defs>
        <path id="DejaVuSans-34" d="M 2419 4116 
L 825 1625 
L 2419 1625 
L 2419 4116 
z
M 2253 4666 
L 3047 4666 
L 3047 1625 
L 3713 1625 
L 3713 1100 
L 3047 1100 
L 3047 0 
L 2419 0 
L 2419 1100 
L 313 1100 
L 313 1709 
L 2253 4666 
z
" transform="scale(0.015625)"/>
       </defs>
       <use xlink:href="#DejaVuSans-34"/>
      </g>
     </g>
    </g>
    <g id="xtick_4">
     <g id="line2d_4">
      <g>
       <use xlink:href="#maa15390a62" x="227.89007" y="326.27226" style="stroke: #000000; stroke-width: 0.8"/>
      </g>
     </g>
     <g id="text_4">
      <!-- 6 -->
      <g transform="translate(224.07257 338.890385) scale(0.12 -0.12)">
       <defs>
        <path id="DejaVuSans-36" d="M 2113 2584 
Q 1688 2584 1439 2293 
Q 1191 2003 1191 1497 
Q 1191 994 1439 701 
Q 1688 409 2113 409 
Q 2538 409 2786 701 
Q 3034 994 3034 1497 
Q 3034 2003 2786 2293 
Q 2538 2584 2113 2584 
z
M 3366 4563 
L 3366 3988 
Q 3128 4100 2886 4159 
Q 2644 4219 2406 4219 
Q 1781 4219 1451 3797 
Q 1122 3375 1075 2522 
Q 1259 2794 1537 2939 
Q 1816 3084 2150 3084 
Q 2853 3084 3261 2657 
Q 3669 2231 3669 1497 
Q 3669 778 3244 343 
Q 2819 -91 2113 -91 
Q 1303 -91 875 529 
Q 447 1150 447 2328 
Q 447 3434 972 4092 
Q 1497 4750 2381 4750 
Q 2619 4750 2861 4703 
Q 3103 4656 3366 4563 
z
" transform="scale(0.015625)"/>
       </defs>
       <use xlink:href="#DejaVuSans-36"/>
      </g>
     </g>
    </g>
    <g id="xtick_5">
     <g id="line2d_5">
      <g>
       <use xlink:href="#maa15390a62" x="284.158094" y="326.27226" style="stroke: #000000; stroke-width: 0.8"/>
      </g>
     </g>
     <g id="text_5">
      <!-- 8 -->
      <g transform="translate(280.340594 338.890385) scale(0.12 -0.12)">
       <defs>
        <path id="DejaVuSans-38" d="M 2034 2216 
Q 1584 2216 1326 1975 
Q 1069 1734 1069 1313 
Q 1069 891 1326 650 
Q 1584 409 2034 409 
Q 2484 409 2743 651 
Q 3003 894 3003 1313 
Q 3003 1734 2745 1975 
Q 2488 2216 2034 2216 
z
M 1403 2484 
Q 997 2584 770 2862 
Q 544 3141 544 3541 
Q 544 4100 942 4425 
Q 1341 4750 2034 4750 
Q 2731 4750 3128 4425 
Q 3525 4100 3525 3541 
Q 3525 3141 3298 2862 
Q 3072 2584 2669 2484 
Q 3125 2378 3379 2068 
Q 3634 1759 3634 1313 
Q 3634 634 3220 271 
Q 2806 -91 2034 -91 
Q 1263 -91 848 271 
Q 434 634 434 1313 
Q 434 1759 690 2068 
Q 947 2378 1403 2484 
z
M 1172 3481 
Q 1172 3119 1398 2916 
Q 1625 2713 2034 2713 
Q 2441 2713 2670 2916 
Q 2900 3119 2900 3481 
Q 2900 3844 2670 4047 
Q 2441 4250 2034 4250 
Q 1625 4250 1398 4047 
Q 1172 3844 1172 3481 
z
" transform="scale(0.015625)"/>
       </defs>
       <use xlink:href="#DejaVuSans-38"/>
      </g>
     </g>
    </g>
    <g id="xtick_6">
     <g id="line2d_6">
      <g>
       <use xlink:href="#maa15390a62" x="340.426119" y="326.27226" style="stroke: #000000; stroke-width: 0.8"/>
      </g>
     </g>
     <g id="text_6">
      <!-- 10 -->
      <g transform="translate(332.791119 338.890385) scale(0.12 -0.12)">
       <defs>
        <path id="DejaVuSans-31" d="M 794 531 
L 1825 531 
L 1825 4091 
L 703 3866 
L 703 4441 
L 1819 4666 
L 2450 4666 
L 2450 531 
L 3481 531 
L 3481 0 
L 794 0 
L 794 531 
z
" transform="scale(0.015625)"/>
       </defs>
       <use xlink:href="#DejaVuSans-31"/>
       <use xlink:href="#DejaVuSans-30" x="63.623047"/>
      </g>
     </g>
    </g>
    <g id="text_7">
     <!-- Time [s] -->
     <g transform="translate(175.36137 354.504135) scale(0.12 -0.12)">
      <defs>
       <path id="DejaVuSans-54" d="M -19 4666 
L 3928 4666 
L 3928 4134 
L 2272 4134 
L 2272 0 
L 1638 0 
L 1638 4134 
L -19 4134 
L -19 4666 
z
" transform="scale(0.015625)"/>
       <path id="DejaVuSans-69" d="M 603 3500 
L 1178 3500 
L 1178 0 
L 603 0 
L 603 3500 
z
M 603 4863 
L 1178 4863 
L 1178 4134 
L 603 4134 
L 603 4863 
z
" transform="scale(0.015625)"/>
       <path id="DejaVuSans-6d" d="M 3328 2828 
Q 3544 3216 3844 3400 
Q 4144 3584 4550 3584 
Q 5097 3584 5394 3201 
Q 5691 2819 5691 2113 
L 5691 0 
L 5113 0 
L 5113 2094 
Q 5113 2597 4934 2840 
Q 4756 3084 4391 3084 
Q 3944 3084 3684 2787 
Q 3425 2491 3425 1978 
L 3425 0 
L 2847 0 
L 2847 2094 
Q 2847 2600 2669 2842 
Q 2491 3084 2119 3084 
Q 1678 3084 1418 2786 
Q 1159 2488 1159 1978 
L 1159 0 
L 581 0 
L 581 3500 
L 1159 3500 
L 1159 2956 
Q 1356 3278 1631 3431 
Q 1906 3584 2284 3584 
Q 2666 3584 2933 3390 
Q 3200 3197 3328 2828 
z
" transform="scale(0.015625)"/>
       <path id="DejaVuSans-65" d="M 3597 1894 
L 3597 1613 
L 953 1613 
Q 991 1019 1311 708 
Q 1631 397 2203 397 
Q 2534 397 2845 478 
Q 3156 559 3463 722 
L 3463 178 
Q 3153 47 2828 -22 
Q 2503 -91 2169 -91 
Q 1331 -91 842 396 
Q 353 884 353 1716 
Q 353 2575 817 3079 
Q 1281 3584 2069 3584 
Q 2775 3584 3186 3129 
Q 3597 2675 3597 1894 
z
M 3022 2063 
Q 3016 2534 2758 2815 
Q 2500 3097 2075 3097 
Q 1594 3097 1305 2825 
Q 1016 2553 972 2059 
L 3022 2063 
z
" transform="scale(0.015625)"/>
       <path id="DejaVuSans-20" transform="scale(0.015625)"/>
       <path id="DejaVuSans-5b" d="M 550 4863 
L 1875 4863 
L 1875 4416 
L 1125 4416 
L 1125 -397 
L 1875 -397 
L 1875 -844 
L 550 -844 
L 550 4863 
z
" transform="scale(0.015625)"/>
       <path id="DejaVuSans-73" d="M 2834 3397 
L 2834 2853 
Q 2591 2978 2328 3040 
Q 2066 3103 1784 3103 
Q 1356 3103 1142 2972 
Q 928 2841 928 2578 
Q 928 2378 1081 2264 
Q 1234 2150 1697 2047 
L 1894 2003 
Q 2506 1872 2764 1633 
Q 3022 1394 3022 966 
Q 3022 478 2636 193 
Q 2250 -91 1575 -91 
Q 1294 -91 989 -36 
Q 684 19 347 128 
L 347 722 
Q 666 556 975 473 
Q 1284 391 1588 391 
Q 1994 391 2212 530 
Q 2431 669 2431 922 
Q 2431 1156 2273 1281 
Q 2116 1406 1581 1522 
L 1381 1569 
Q 847 1681 609 1914 
Q 372 2147 372 2553 
Q 372 3047 722 3315 
Q 1072 3584 1716 3584 
Q 2034 3584 2315 3537 
Q 2597 3491 2834 3397 
z
" transform="scale(0.015625)"/>
       <path id="DejaVuSans-5d" d="M 1947 4863 
L 1947 -844 
L 622 -844 
L 622 -397 
L 1369 -397 
L 1369 4416 
L 622 4416 
L 622 4863 
L 1947 4863 
z
" transform="scale(0.015625)"/>
      </defs>
      <use xlink:href="#DejaVuSans-54"/>
      <use xlink:href="#DejaVuSans-69" x="57.958984"/>
      <use xlink:href="#DejaVuSans-6d" x="85.742188"/>
      <use xlink:href="#DejaVuSans-65" x="183.154297"/>
      <use xlink:href="#DejaVuSans-20" x="244.677734"/>
      <use xlink:href="#DejaVuSans-5b" x="276.464844"/>
      <use xlink:href="#DejaVuSans-73" x="315.478516"/>
      <use xlink:href="#DejaVuSans-5d" x="367.578125"/>
     </g>
    </g>
   </g>
   <g id="matplotlib.axis_2">
    <g id="ytick_1">
     <g id="line2d_7">
      <defs>
       <path id="m9b44c874b3" d="M 0 0 
L 3.5 0 
" style="stroke: #000000; stroke-width: 0.8"/>
      </defs>
      <g>
       <use xlink:href="#m9b44c874b3" x="45.01899" y="293.64508" style="stroke: #000000; stroke-width: 0.8"/>
      </g>
     </g>
     <g id="text_8">
      <!-- 0 -->
      <g transform="translate(33.88399 298.204143) scale(0.12 -0.12)">
       <use xlink:href="#DejaVuSans-30"/>
      </g>
     </g>
    </g>
    <g id="ytick_2">
     <g id="line2d_8">
      <g>
       <use xlink:href="#m9b44c874b3" x="45.01899" y="249.579439" style="stroke: #000000; stroke-width: 0.8"/>
      </g>
     </g>
     <g id="text_9">
      <!-- 50 -->
      <g transform="translate(26.24899 254.138501) scale(0.12 -0.12)">
       <defs>
        <path id="DejaVuSans-35" d="M 691 4666 
L 3169 4666 
L 3169 4134 
L 1269 4134 
L 1269 2991 
Q 1406 3038 1543 3061 
Q 1681 3084 1819 3084 
Q 2600 3084 3056 2656 
Q 3513 2228 3513 1497 
Q 3513 744 3044 326 
Q 2575 -91 1722 -91 
Q 1428 -91 1123 -41 
Q 819 9 494 109 
L 494 744 
Q 775 591 1075 516 
Q 1375 441 1709 441 
Q 2250 441 2565 725 
Q 2881 1009 2881 1497 
Q 2881 1984 2565 2268 
Q 2250 2553 1709 2553 
Q 1456 2553 1204 2497 
Q 953 2441 691 2322 
L 691 4666 
z
" transform="scale(0.015625)"/>
       </defs>
       <use xlink:href="#DejaVuSans-35"/>
       <use xlink:href="#DejaVuSans-30" x="63.623047"/>
      </g>
     </g>
    </g>
    <g id="ytick_3">
     <g id="line2d_9">
      <g>
       <use xlink:href="#m9b44c874b3" x="45.01899" y="205.513797" style="stroke: #000000; stroke-width: 0.8"/>
      </g>
     </g>
     <g id="text_10">
      <!-- 100 -->
      <g transform="translate(18.61399 210.072859) scale(0.12 -0.12)">
       <use xlink:href="#DejaVuSans-31"/>
       <use xlink:href="#DejaVuSans-30" x="63.623047"/>
       <use xlink:href="#DejaVuSans-30" x="127.246094"/>
      </g>
     </g>
    </g>
    <g id="ytick_4">
     <g id="line2d_10">
      <g>
       <use xlink:href="#m9b44c874b3" x="45.01899" y="161.448155" style="stroke: #000000; stroke-width: 0.8"/>
      </g>
     </g>
     <g id="text_11">
      <!-- 150 -->
      <g transform="translate(18.61399 166.007217) scale(0.12 -0.12)">
       <use xlink:href="#DejaVuSans-31"/>
       <use xlink:href="#DejaVuSans-35" x="63.623047"/>
       <use xlink:href="#DejaVuSans-30" x="127.246094"/>
      </g>
     </g>
    </g>
    <g id="ytick_5">
     <g id="line2d_11">
      <g>
       <use xlink:href="#m9b44c874b3" x="45.01899" y="117.382513" style="stroke: #000000; stroke-width: 0.8"/>
      </g>
     </g>
     <g id="text_12">
      <!-- 200 -->
      <g transform="translate(18.61399 121.941575) scale(0.12 -0.12)">
       <use xlink:href="#DejaVuSans-32"/>
       <use xlink:href="#DejaVuSans-30" x="63.623047"/>
       <use xlink:href="#DejaVuSans-30" x="127.246094"/>
      </g>
     </g>
    </g>
    <g id="ytick_6">
     <g id="line2d_12">
      <g>
       <use xlink:href="#m9b44c874b3" x="45.01899" y="73.316871" style="stroke: #000000; stroke-width: 0.8"/>
      </g>
     </g>
     <g id="text_13">
      <!-- 250 -->
      <g transform="translate(18.61399 77.875934) scale(0.12 -0.12)">
       <use xlink:href="#DejaVuSans-32"/>
       <use xlink:href="#DejaVuSans-35" x="63.623047"/>
       <use xlink:href="#DejaVuSans-30" x="127.246094"/>
      </g>
     </g>
    </g>
    <g id="ytick_7">
     <g id="line2d_13">
      <g>
       <use xlink:href="#m9b44c874b3" x="45.01899" y="29.251229" style="stroke: #000000; stroke-width: 0.8"/>
      </g>
     </g>
     <g id="text_14">
      <!-- 300 -->
      <g transform="translate(18.61399 33.810292) scale(0.12 -0.12)">
       <defs>
        <path id="DejaVuSans-33" d="M 2597 2516 
Q 3050 2419 3304 2112 
Q 3559 1806 3559 1356 
Q 3559 666 3084 287 
Q 2609 -91 1734 -91 
Q 1441 -91 1130 -33 
Q 819 25 488 141 
L 488 750 
Q 750 597 1062 519 
Q 1375 441 1716 441 
Q 2309 441 2620 675 
Q 2931 909 2931 1356 
Q 2931 1769 2642 2001 
Q 2353 2234 1838 2234 
L 1294 2234 
L 1294 2753 
L 1863 2753 
Q 2328 2753 2575 2939 
Q 2822 3125 2822 3475 
Q 2822 3834 2567 4026 
Q 2313 4219 1838 4219 
Q 1578 4219 1281 4162 
Q 984 4106 628 3988 
L 628 4550 
Q 988 4650 1302 4700 
Q 1616 4750 1894 4750 
Q 2613 4750 3031 4423 
Q 3450 4097 3450 3541 
Q 3450 3153 3228 2886 
Q 3006 2619 2597 2516 
z
" transform="scale(0.015625)"/>
       </defs>
       <use xlink:href="#DejaVuSans-33"/>
       <use xlink:href="#DejaVuSans-30" x="63.623047"/>
       <use xlink:href="#DejaVuSans-30" x="127.246094"/>
      </g>
     </g>
    </g>
    <g id="text_15">
     <!-- Position [mm] -->
     <g transform="translate(12.118365 218.829928) rotate(-90) scale(0.12 -0.12)">
      <defs>
       <path id="DejaVuSans-50" d="M 1259 4147 
L 1259 2394 
L 2053 2394 
Q 2494 2394 2734 2622 
Q 2975 2850 2975 3272 
Q 2975 3691 2734 3919 
Q 2494 4147 2053 4147 
L 1259 4147 
z
M 628 4666 
L 2053 4666 
Q 2838 4666 3239 4311 
Q 3641 3956 3641 3272 
Q 3641 2581 3239 2228 
Q 2838 1875 2053 1875 
L 1259 1875 
L 1259 0 
L 628 0 
L 628 4666 
z
" transform="scale(0.015625)"/>
       <path id="DejaVuSans-6f" d="M 1959 3097 
Q 1497 3097 1228 2736 
Q 959 2375 959 1747 
Q 959 1119 1226 758 
Q 1494 397 1959 397 
Q 2419 397 2687 759 
Q 2956 1122 2956 1747 
Q 2956 2369 2687 2733 
Q 2419 3097 1959 3097 
z
M 1959 3584 
Q 2709 3584 3137 3096 
Q 3566 2609 3566 1747 
Q 3566 888 3137 398 
Q 2709 -91 1959 -91 
Q 1206 -91 779 398 
Q 353 888 353 1747 
Q 353 2609 779 3096 
Q 1206 3584 1959 3584 
z
" transform="scale(0.015625)"/>
       <path id="DejaVuSans-74" d="M 1172 4494 
L 1172 3500 
L 2356 3500 
L 2356 3053 
L 1172 3053 
L 1172 1153 
Q 1172 725 1289 603 
Q 1406 481 1766 481 
L 2356 481 
L 2356 0 
L 1766 0 
Q 1100 0 847 248 
Q 594 497 594 1153 
L 594 3053 
L 172 3053 
L 172 3500 
L 594 3500 
L 594 4494 
L 1172 4494 
z
" transform="scale(0.015625)"/>
       <path id="DejaVuSans-6e" d="M 3513 2113 
L 3513 0 
L 2938 0 
L 2938 2094 
Q 2938 2591 2744 2837 
Q 2550 3084 2163 3084 
Q 1697 3084 1428 2787 
Q 1159 2491 1159 1978 
L 1159 0 
L 581 0 
L 581 3500 
L 1159 3500 
L 1159 2956 
Q 1366 3272 1645 3428 
Q 1925 3584 2291 3584 
Q 2894 3584 3203 3211 
Q 3513 2838 3513 2113 
z
" transform="scale(0.015625)"/>
      </defs>
      <use xlink:href="#DejaVuSans-50"/>
      <use xlink:href="#DejaVuSans-6f" x="56.677734"/>
      <use xlink:href="#DejaVuSans-73" x="117.859375"/>
      <use xlink:href="#DejaVuSans-69" x="169.958984"/>
      <use xlink:href="#DejaVuSans-74" x="197.742188"/>
      <use xlink:href="#DejaVuSans-69" x="236.951172"/>
      <use xlink:href="#DejaVuSans-6f" x="264.734375"/>
      <use xlink:href="#DejaVuSans-6e" x="325.916016"/>
      <use xlink:href="#DejaVuSans-20" x="389.294922"/>
      <use xlink:href="#DejaVuSans-5b" x="421.082031"/>
      <use xlink:href="#DejaVuSans-6d" x="460.095703"/>
      <use xlink:href="#DejaVuSans-6d" x="557.507812"/>
      <use xlink:href="#DejaVuSans-5d" x="654.919922"/>
     </g>
    </g>
   </g>
   <g id="line2d_14">
    <defs>
     <path id="m0a8b192fcc" d="M 0 3.5 
C 0.928211 3.5 1.81853 3.131218 2.474874 2.474874 
C 3.131218 1.81853 3.5 0.928211 3.5 0 
C 3.5 -0.928211 3.131218 -1.81853 2.474874 -2.474874 
C 1.81853 -3.131218 0.928211 -3.5 0 -3.5 
C -0.928211 -3.5 -1.81853 -3.131218 -2.474874 -2.474874 
C -3.131218 -1.81853 -3.5 -0.928211 -3.5 0 
C -3.5 0.928211 -3.131218 1.81853 -2.474874 2.474874 
C -1.81853 3.131218 -0.928211 3.5 0 3.5 
z
" style="stroke: #000000; stroke-opacity: 0"/>
    </defs>
    <g clip-path="url(#p949693a9de)">
     <use xlink:href="#m0a8b192fcc" x="59.085996" y="297.318021" style="fill: #3e82a0; stroke: #000000; stroke-opacity: 0"/>
     <use xlink:href="#m0a8b192fcc" x="61.927816" y="294.292034" style="fill: #3e82a0; stroke: #000000; stroke-opacity: 0"/>
     <use xlink:href="#m0a8b192fcc" x="64.769635" y="312.719832" style="fill: #3e82a0; stroke: #000000; stroke-opacity: 0"/>
     <use xlink:href="#m0a8b192fcc" x="67.611454" y="279.480506" style="fill: #3e82a0; stroke: #000000; stroke-opacity: 0"/>
     <use xlink:href="#m0a8b192fcc" x="70.453274" y="309.731411" style="fill: #3e82a0; stroke: #000000; stroke-opacity: 0"/>
     <use xlink:href="#m0a8b192fcc" x="73.295093" y="301.279318" style="fill: #3e82a0; stroke: #000000; stroke-opacity: 0"/>
     <use xlink:href="#m0a8b192fcc" x="76.136913" y="289.310236" style="fill: #3e82a0; stroke: #000000; stroke-opacity: 0"/>
     <use xlink:href="#m0a8b192fcc" x="78.978732" y="304.544431" style="fill: #3e82a0; stroke: #000000; stroke-opacity: 0"/>
     <use xlink:href="#m0a8b192fcc" x="81.820552" y="302.666816" style="fill: #3e82a0; stroke: #000000; stroke-opacity: 0"/>
     <use xlink:href="#m0a8b192fcc" x="84.662371" y="301.073595" style="fill: #3e82a0; stroke: #000000; stroke-opacity: 0"/>
     <use xlink:href="#m0a8b192fcc" x="87.50419" y="287.867854" style="fill: #3e82a0; stroke: #000000; stroke-opacity: 0"/>
     <use xlink:href="#m0a8b192fcc" x="90.34601" y="272.137908" style="fill: #3e82a0; stroke: #000000; stroke-opacity: 0"/>
     <use xlink:href="#m0a8b192fcc" x="93.187829" y="291.53093" style="fill: #3e82a0; stroke: #000000; stroke-opacity: 0"/>
     <use xlink:href="#m0a8b192fcc" x="96.029649" y="301.25308" style="fill: #3e82a0; stroke: #000000; stroke-opacity: 0"/>
     <use xlink:href="#m0a8b192fcc" x="98.871468" y="286.099555" style="fill: #3e82a0; stroke: #000000; stroke-opacity: 0"/>
     <use xlink:href="#m0a8b192fcc" x="101.713287" y="295.50011" style="fill: #3e82a0; stroke: #000000; stroke-opacity: 0"/>
     <use xlink:href="#m0a8b192fcc" x="104.555107" y="289.756458" style="fill: #3e82a0; stroke: #000000; stroke-opacity: 0"/>
     <use xlink:href="#m0a8b192fcc" x="107.396926" y="278.52025" style="fill: #3e82a0; stroke: #000000; stroke-opacity: 0"/>
     <use xlink:href="#m0a8b192fcc" x="110.238746" y="294.700645" style="fill: #3e82a0; stroke: #000000; stroke-opacity: 0"/>
     <use xlink:href="#m0a8b192fcc" x="113.080565" y="287.209944" style="fill: #3e82a0; stroke: #000000; stroke-opacity: 0"/>
     <use xlink:href="#m0a8b192fcc" x="115.922385" y="294.154333" style="fill: #3e82a0; stroke: #000000; stroke-opacity: 0"/>
     <use xlink:href="#m0a8b192fcc" x="118.764204" y="286.866148" style="fill: #3e82a0; stroke: #000000; stroke-opacity: 0"/>
     <use xlink:href="#m0a8b192fcc" x="121.606023" y="282.244352" style="fill: #3e82a0; stroke: #000000; stroke-opacity: 0"/>
     <use xlink:href="#m0a8b192fcc" x="124.447843" y="292.18389" style="fill: #3e82a0; stroke: #000000; stroke-opacity: 0"/>
     <use xlink:href="#m0a8b192fcc" x="127.289662" y="285.365896" style="fill: #3e82a0; stroke: #000000; stroke-opacity: 0"/>
     <use xlink:href="#m0a8b192fcc" x="130.131482" y="283.317543" style="fill: #3e82a0; stroke: #000000; stroke-opacity: 0"/>
     <use xlink:href="#m0a8b192fcc" x="132.973301" y="285.658015" style="fill: #3e82a0; stroke: #000000; stroke-opacity: 0"/>
     <use xlink:href="#m0a8b192fcc" x="135.815121" y="289.253163" style="fill: #3e82a0; stroke: #000000; stroke-opacity: 0"/>
     <use xlink:href="#m0a8b192fcc" x="138.65694" y="290.006304" style="fill: #3e82a0; stroke: #000000; stroke-opacity: 0"/>
     <use xlink:href="#m0a8b192fcc" x="141.498759" y="277.474106" style="fill: #3e82a0; stroke: #000000; stroke-opacity: 0"/>
     <use xlink:href="#m0a8b192fcc" x="144.340579" y="277.079013" style="fill: #3e82a0; stroke: #000000; stroke-opacity: 0"/>
     <use xlink:href="#m0a8b192fcc" x="147.182398" y="253.574952" style="fill: #3e82a0; stroke: #000000; stroke-opacity: 0"/>
     <use xlink:href="#m0a8b192fcc" x="150.024218" y="293.176735" style="fill: #3e82a0; stroke: #000000; stroke-opacity: 0"/>
     <use xlink:href="#m0a8b192fcc" x="152.866037" y="269.149932" style="fill: #3e82a0; stroke: #000000; stroke-opacity: 0"/>
     <use xlink:href="#m0a8b192fcc" x="155.707856" y="265.249266" style="fill: #3e82a0; stroke: #000000; stroke-opacity: 0"/>
     <use xlink:href="#m0a8b192fcc" x="158.549676" y="254.848098" style="fill: #3e82a0; stroke: #000000; stroke-opacity: 0"/>
     <use xlink:href="#m0a8b192fcc" x="161.391495" y="260.670526" style="fill: #3e82a0; stroke: #000000; stroke-opacity: 0"/>
     <use xlink:href="#m0a8b192fcc" x="164.233315" y="270.742401" style="fill: #3e82a0; stroke: #000000; stroke-opacity: 0"/>
     <use xlink:href="#m0a8b192fcc" x="167.075134" y="261.456979" style="fill: #3e82a0; stroke: #000000; stroke-opacity: 0"/>
     <use xlink:href="#m0a8b192fcc" x="169.916954" y="254.778116" style="fill: #3e82a0; stroke: #000000; stroke-opacity: 0"/>
     <use xlink:href="#m0a8b192fcc" x="172.758773" y="260.36785" style="fill: #3e82a0; stroke: #000000; stroke-opacity: 0"/>
     <use xlink:href="#m0a8b192fcc" x="175.600592" y="248.802806" style="fill: #3e82a0; stroke: #000000; stroke-opacity: 0"/>
     <use xlink:href="#m0a8b192fcc" x="178.442412" y="270.000572" style="fill: #3e82a0; stroke: #000000; stroke-opacity: 0"/>
     <use xlink:href="#m0a8b192fcc" x="181.284231" y="236.164761" style="fill: #3e82a0; stroke: #000000; stroke-opacity: 0"/>
     <use xlink:href="#m0a8b192fcc" x="184.126051" y="236.318192" style="fill: #3e82a0; stroke: #000000; stroke-opacity: 0"/>
     <use xlink:href="#m0a8b192fcc" x="186.96787" y="249.988554" style="fill: #3e82a0; stroke: #000000; stroke-opacity: 0"/>
     <use xlink:href="#m0a8b192fcc" x="189.80969" y="239.36557" style="fill: #3e82a0; stroke: #000000; stroke-opacity: 0"/>
     <use xlink:href="#m0a8b192fcc" x="192.651509" y="241.999879" style="fill: #3e82a0; stroke: #000000; stroke-opacity: 0"/>
     <use xlink:href="#m0a8b192fcc" x="195.493328" y="247.345228" style="fill: #3e82a0; stroke: #000000; stroke-opacity: 0"/>
     <use xlink:href="#m0a8b192fcc" x="198.335148" y="236.826302" style="fill: #3e82a0; stroke: #000000; stroke-opacity: 0"/>
     <use xlink:href="#m0a8b192fcc" x="201.176967" y="226.290348" style="fill: #3e82a0; stroke: #000000; stroke-opacity: 0"/>
     <use xlink:href="#m0a8b192fcc" x="204.018787" y="235.918764" style="fill: #3e82a0; stroke: #000000; stroke-opacity: 0"/>
     <use xlink:href="#m0a8b192fcc" x="206.860606" y="233.270463" style="fill: #3e82a0; stroke: #000000; stroke-opacity: 0"/>
     <use xlink:href="#m0a8b192fcc" x="209.702425" y="227.961501" style="fill: #3e82a0; stroke: #000000; stroke-opacity: 0"/>
     <use xlink:href="#m0a8b192fcc" x="212.544245" y="220.77631" style="fill: #3e82a0; stroke: #000000; stroke-opacity: 0"/>
     <use xlink:href="#m0a8b192fcc" x="215.386064" y="210.567885" style="fill: #3e82a0; stroke: #000000; stroke-opacity: 0"/>
     <use xlink:href="#m0a8b192fcc" x="218.227884" y="224.611599" style="fill: #3e82a0; stroke: #000000; stroke-opacity: 0"/>
     <use xlink:href="#m0a8b192fcc" x="221.069703" y="211.667258" style="fill: #3e82a0; stroke: #000000; stroke-opacity: 0"/>
     <use xlink:href="#m0a8b192fcc" x="223.911523" y="211.31894" style="fill: #3e82a0; stroke: #000000; stroke-opacity: 0"/>
     <use xlink:href="#m0a8b192fcc" x="226.753342" y="226.625614" style="fill: #3e82a0; stroke: #000000; stroke-opacity: 0"/>
     <use xlink:href="#m0a8b192fcc" x="229.595161" y="210.908788" style="fill: #3e82a0; stroke: #000000; stroke-opacity: 0"/>
     <use xlink:href="#m0a8b192fcc" x="232.436981" y="205.293451" style="fill: #3e82a0; stroke: #000000; stroke-opacity: 0"/>
     <use xlink:href="#m0a8b192fcc" x="235.2788" y="201.335926" style="fill: #3e82a0; stroke: #000000; stroke-opacity: 0"/>
     <use xlink:href="#m0a8b192fcc" x="238.12062" y="194.920095" style="fill: #3e82a0; stroke: #000000; stroke-opacity: 0"/>
     <use xlink:href="#m0a8b192fcc" x="240.962439" y="212.526898" style="fill: #3e82a0; stroke: #000000; stroke-opacity: 0"/>
     <use xlink:href="#m0a8b192fcc" x="243.804259" y="190.835725" style="fill: #3e82a0; stroke: #000000; stroke-opacity: 0"/>
     <use xlink:href="#m0a8b192fcc" x="246.646078" y="193.859982" style="fill: #3e82a0; stroke: #000000; stroke-opacity: 0"/>
     <use xlink:href="#m0a8b192fcc" x="249.487897" y="197.163708" style="fill: #3e82a0; stroke: #000000; stroke-opacity: 0"/>
     <use xlink:href="#m0a8b192fcc" x="252.329717" y="176.393309" style="fill: #3e82a0; stroke: #000000; stroke-opacity: 0"/>
     <use xlink:href="#m0a8b192fcc" x="255.171536" y="171.01619" style="fill: #3e82a0; stroke: #000000; stroke-opacity: 0"/>
     <use xlink:href="#m0a8b192fcc" x="258.013356" y="179.681831" style="fill: #3e82a0; stroke: #000000; stroke-opacity: 0"/>
     <use xlink:href="#m0a8b192fcc" x="260.855175" y="162.874375" style="fill: #3e82a0; stroke: #000000; stroke-opacity: 0"/>
     <use xlink:href="#m0a8b192fcc" x="263.696994" y="169.981848" style="fill: #3e82a0; stroke: #000000; stroke-opacity: 0"/>
     <use xlink:href="#m0a8b192fcc" x="266.538814" y="162.300011" style="fill: #3e82a0; stroke: #000000; stroke-opacity: 0"/>
     <use xlink:href="#m0a8b192fcc" x="269.380633" y="168.781854" style="fill: #3e82a0; stroke: #000000; stroke-opacity: 0"/>
     <use xlink:href="#m0a8b192fcc" x="272.222453" y="141.292826" style="fill: #3e82a0; stroke: #000000; stroke-opacity: 0"/>
     <use xlink:href="#m0a8b192fcc" x="275.064272" y="174.799819" style="fill: #3e82a0; stroke: #000000; stroke-opacity: 0"/>
     <use xlink:href="#m0a8b192fcc" x="277.906092" y="148.218416" style="fill: #3e82a0; stroke: #000000; stroke-opacity: 0"/>
     <use xlink:href="#m0a8b192fcc" x="280.747911" y="137.282984" style="fill: #3e82a0; stroke: #000000; stroke-opacity: 0"/>
     <use xlink:href="#m0a8b192fcc" x="283.58973" y="157.273142" style="fill: #3e82a0; stroke: #000000; stroke-opacity: 0"/>
     <use xlink:href="#m0a8b192fcc" x="286.43155" y="136.910582" style="fill: #3e82a0; stroke: #000000; stroke-opacity: 0"/>
     <use xlink:href="#m0a8b192fcc" x="289.273369" y="131.756176" style="fill: #3e82a0; stroke: #000000; stroke-opacity: 0"/>
     <use xlink:href="#m0a8b192fcc" x="292.115189" y="119.588345" style="fill: #3e82a0; stroke: #000000; stroke-opacity: 0"/>
     <use xlink:href="#m0a8b192fcc" x="294.957008" y="111.582866" style="fill: #3e82a0; stroke: #000000; stroke-opacity: 0"/>
     <use xlink:href="#m0a8b192fcc" x="297.798828" y="121.816097" style="fill: #3e82a0; stroke: #000000; stroke-opacity: 0"/>
     <use xlink:href="#m0a8b192fcc" x="300.640647" y="126.077546" style="fill: #3e82a0; stroke: #000000; stroke-opacity: 0"/>
     <use xlink:href="#m0a8b192fcc" x="303.482466" y="97.391095" style="fill: #3e82a0; stroke: #000000; stroke-opacity: 0"/>
     <use xlink:href="#m0a8b192fcc" x="306.324286" y="94.218492" style="fill: #3e82a0; stroke: #000000; stroke-opacity: 0"/>
     <use xlink:href="#m0a8b192fcc" x="309.166105" y="104.480793" style="fill: #3e82a0; stroke: #000000; stroke-opacity: 0"/>
     <use xlink:href="#m0a8b192fcc" x="312.007925" y="92.719909" style="fill: #3e82a0; stroke: #000000; stroke-opacity: 0"/>
     <use xlink:href="#m0a8b192fcc" x="314.849744" y="87.796199" style="fill: #3e82a0; stroke: #000000; stroke-opacity: 0"/>
     <use xlink:href="#m0a8b192fcc" x="317.691563" y="81.466326" style="fill: #3e82a0; stroke: #000000; stroke-opacity: 0"/>
     <use xlink:href="#m0a8b192fcc" x="320.533383" y="79.898669" style="fill: #3e82a0; stroke: #000000; stroke-opacity: 0"/>
     <use xlink:href="#m0a8b192fcc" x="323.375202" y="64.488429" style="fill: #3e82a0; stroke: #000000; stroke-opacity: 0"/>
     <use xlink:href="#m0a8b192fcc" x="326.217022" y="87.336176" style="fill: #3e82a0; stroke: #000000; stroke-opacity: 0"/>
     <use xlink:href="#m0a8b192fcc" x="329.058841" y="57.925939" style="fill: #3e82a0; stroke: #000000; stroke-opacity: 0"/>
     <use xlink:href="#m0a8b192fcc" x="331.900661" y="58.771293" style="fill: #3e82a0; stroke: #000000; stroke-opacity: 0"/>
     <use xlink:href="#m0a8b192fcc" x="334.74248" y="59.009716" style="fill: #3e82a0; stroke: #000000; stroke-opacity: 0"/>
     <use xlink:href="#m0a8b192fcc" x="337.584299" y="41.671273" style="fill: #3e82a0; stroke: #000000; stroke-opacity: 0"/>
     <use xlink:href="#m0a8b192fcc" x="340.426119" y="67.531962" style="fill: #3e82a0; stroke: #000000; stroke-opacity: 0"/>
    </g>
   </g>
   <g id="patch_3">
    <path d="M 45.01899 326.27226 
L 45.01899 28.118845 
" style="fill: none; stroke: #000000; stroke-linejoin: miter; stroke-linecap: square"/>
   </g>
   <g id="patch_4">
    <path d="M 354.493125 326.27226 
L 354.493125 28.118845 
" style="fill: none; stroke: #000000; stroke-linejoin: miter; stroke-linecap: square"/>
   </g>
   <g id="patch_5">
    <path d="M 45.01899 326.27226 
L 354.493125 326.27226 
" style="fill: none; stroke: #000000; stroke-linejoin: miter; stroke-linecap: square"/>
   </g>
   <g id="patch_6">
    <path d="M 45.01899 28.118845 
L 354.493125 28.118845 
" style="fill: none; stroke: #000000; stroke-linejoin: miter; stroke-linecap: square"/>
   </g>
   <g id="text_16">
    <!-- a) -->
    <g transform="translate(40.01899 18.118845) scale(0.12 -0.12)">
     <defs>
      <path id="DejaVuSans-61" d="M 2194 1759 
Q 1497 1759 1228 1600 
Q 959 1441 959 1056 
Q 959 750 1161 570 
Q 1363 391 1709 391 
Q 2188 391 2477 730 
Q 2766 1069 2766 1631 
L 2766 1759 
L 2194 1759 
z
M 3341 1997 
L 3341 0 
L 2766 0 
L 2766 531 
Q 2569 213 2275 61 
Q 1981 -91 1556 -91 
Q 1019 -91 701 211 
Q 384 513 384 1019 
Q 384 1609 779 1909 
Q 1175 2209 1959 2209 
L 2766 2209 
L 2766 2266 
Q 2766 2663 2505 2880 
Q 2244 3097 1772 3097 
Q 1472 3097 1187 3025 
Q 903 2953 641 2809 
L 641 3341 
Q 956 3463 1253 3523 
Q 1550 3584 1831 3584 
Q 2591 3584 2966 3190 
Q 3341 2797 3341 1997 
z
" transform="scale(0.015625)"/>
      <path id="DejaVuSans-29" d="M 513 4856 
L 1013 4856 
Q 1481 4119 1714 3412 
Q 1947 2706 1947 2009 
Q 1947 1309 1714 600 
Q 1481 -109 1013 -844 
L 513 -844 
Q 928 -128 1133 580 
Q 1338 1288 1338 2009 
Q 1338 2731 1133 3434 
Q 928 4138 513 4856 
z
" transform="scale(0.015625)"/>
     </defs>
     <use xlink:href="#DejaVuSans-61"/>
     <use xlink:href="#DejaVuSans-29" x="61.279297"/>
    </g>
   </g>
   <g id="text_17">
    <!-- Position as a function of time -->
    <g transform="translate(112.53762 22.118845) scale(0.12 -0.12)">
     <defs>
      <path id="DejaVuSans-66" d="M 2375 4863 
L 2375 4384 
L 1825 4384 
Q 1516 4384 1395 4259 
Q 1275 4134 1275 3809 
L 1275 3500 
L 2222 3500 
L 2222 3053 
L 1275 3053 
L 1275 0 
L 697 0 
L 697 3053 
L 147 3053 
L 147 3500 
L 697 3500 
L 697 3744 
Q 697 4328 969 4595 
Q 1241 4863 1831 4863 
L 2375 4863 
z
" transform="scale(0.015625)"/>
      <path id="DejaVuSans-75" d="M 544 1381 
L 544 3500 
L 1119 3500 
L 1119 1403 
Q 1119 906 1312 657 
Q 1506 409 1894 409 
Q 2359 409 2629 706 
Q 2900 1003 2900 1516 
L 2900 3500 
L 3475 3500 
L 3475 0 
L 2900 0 
L 2900 538 
Q 2691 219 2414 64 
Q 2138 -91 1772 -91 
Q 1169 -91 856 284 
Q 544 659 544 1381 
z
M 1991 3584 
L 1991 3584 
z
" transform="scale(0.015625)"/>
      <path id="DejaVuSans-63" d="M 3122 3366 
L 3122 2828 
Q 2878 2963 2633 3030 
Q 2388 3097 2138 3097 
Q 1578 3097 1268 2742 
Q 959 2388 959 1747 
Q 959 1106 1268 751 
Q 1578 397 2138 397 
Q 2388 397 2633 464 
Q 2878 531 3122 666 
L 3122 134 
Q 2881 22 2623 -34 
Q 2366 -91 2075 -91 
Q 1284 -91 818 406 
Q 353 903 353 1747 
Q 353 2603 823 3093 
Q 1294 3584 2113 3584 
Q 2378 3584 2631 3529 
Q 2884 3475 3122 3366 
z
" transform="scale(0.015625)"/>
     </defs>
     <use xlink:href="#DejaVuSans-50"/>
     <use xlink:href="#DejaVuSans-6f" x="56.677734"/>
     <use xlink:href="#DejaVuSans-73" x="117.859375"/>
     <use xlink:href="#DejaVuSans-69" x="169.958984"/>
     <use xlink:href="#DejaVuSans-74" x="197.742188"/>
     <use xlink:href="#DejaVuSans-69" x="236.951172"/>
     <use xlink:href="#DejaVuSans-6f" x="264.734375"/>
     <use xlink:href="#DejaVuSans-6e" x="325.916016"/>
     <use xlink:href="#DejaVuSans-20" x="389.294922"/>
     <use xlink:href="#DejaVuSans-61" x="421.082031"/>
     <use xlink:href="#DejaVuSans-73" x="482.361328"/>
     <use xlink:href="#DejaVuSans-20" x="534.460938"/>
     <use xlink:href="#DejaVuSans-61" x="566.248047"/>
     <use xlink:href="#DejaVuSans-20" x="627.527344"/>
     <use xlink:href="#DejaVuSans-66" x="659.314453"/>
     <use xlink:href="#DejaVuSans-75" x="694.519531"/>
     <use xlink:href="#DejaVuSans-6e" x="757.898438"/>
     <use xlink:href="#DejaVuSans-63" x="821.277344"/>
     <use xlink:href="#DejaVuSans-74" x="876.257812"/>
     <use xlink:href="#DejaVuSans-69" x="915.466797"/>
     <use xlink:href="#DejaVuSans-6f" x="943.25"/>
     <use xlink:href="#DejaVuSans-6e" x="1004.431641"/>
     <use xlink:href="#DejaVuSans-20" x="1067.810547"/>
     <use xlink:href="#DejaVuSans-6f" x="1099.597656"/>
     <use xlink:href="#DejaVuSans-66" x="1160.779297"/>
     <use xlink:href="#DejaVuSans-20" x="1195.984375"/>
     <use xlink:href="#DejaVuSans-74" x="1227.771484"/>
     <use xlink:href="#DejaVuSans-69" x="1266.980469"/>
     <use xlink:href="#DejaVuSans-6d" x="1294.763672"/>
     <use xlink:href="#DejaVuSans-65" x="1392.175781"/>
    </g>
   </g>
   <g id="line2d_15">
    <path d="M 59.085996 296.767245 
L 64.724075 296.861643 
L 70.362153 296.747634 
L 76.000232 296.425217 
L 81.638311 295.894393 
L 87.276389 295.155162 
L 92.914468 294.207523 
L 98.552546 293.051476 
L 104.190625 291.687022 
L 110.392512 289.945412 
L 116.594398 287.951629 
L 122.796284 285.705673 
L 128.998171 283.207544 
L 135.200057 280.457242 
L 141.401944 277.454767 
L 147.60383 274.200119 
L 153.805717 270.693297 
L 160.007603 266.934303 
L 166.20949 262.923135 
L 172.411376 258.659795 
L 178.613263 254.144281 
L 185.378957 248.930664 
L 192.144651 243.41694 
L 198.910346 237.60311 
L 205.67604 231.489172 
L 212.441734 225.075128 
L 219.207429 218.360977 
L 225.973123 211.34672 
L 232.738817 204.032355 
L 240.06832 195.769798 
L 247.397822 187.155033 
L 254.727324 178.188058 
L 262.056826 168.868875 
L 269.386328 159.197484 
L 276.715831 149.173884 
L 284.609141 137.985347 
L 292.502451 126.388332 
L 300.395761 114.382838 
L 308.289071 101.968866 
L 316.182381 89.146415 
L 324.075691 75.915485 
L 332.532809 61.286202 
L 340.426119 47.209138 
L 340.426119 47.209138 
" clip-path="url(#p949693a9de)" style="fill: none; stroke: #ff0000; stroke-width: 2; stroke-linecap: round"/>
   </g>
   <g id="legend_1">
    <g id="patch_7">
     <path d="M 53.41899 75.878845 
L 313.09899 75.878845 
Q 315.49899 75.878845 315.49899 73.478845 
L 315.49899 36.518845 
Q 315.49899 34.118845 313.09899 34.118845 
L 53.41899 34.118845 
Q 51.01899 34.118845 51.01899 36.518845 
L 51.01899 73.478845 
Q 51.01899 75.878845 53.41899 75.878845 
z
" style="fill: #ffffff; opacity: 0.8"/>
    </g>
    <g id="line2d_16"/>
    <g id="line2d_17">
     <g>
      <use xlink:href="#m0a8b192fcc" x="67.81899" y="44.198845" style="fill: #3e82a0; stroke: #000000; stroke-opacity: 0"/>
     </g>
    </g>
    <g id="text_18">
     <!-- Position data -->
     <g transform="translate(89.41899 49.478845) scale(0.12 -0.12)">
      <defs>
       <path id="DejaVuSans-64" d="M 2906 2969 
L 2906 4863 
L 3481 4863 
L 3481 0 
L 2906 0 
L 2906 525 
Q 2725 213 2448 61 
Q 2172 -91 1784 -91 
Q 1150 -91 751 415 
Q 353 922 353 1747 
Q 353 2572 751 3078 
Q 1150 3584 1784 3584 
Q 2172 3584 2448 3432 
Q 2725 3281 2906 2969 
z
M 947 1747 
Q 947 1113 1208 752 
Q 1469 391 1925 391 
Q 2381 391 2643 752 
Q 2906 1113 2906 1747 
Q 2906 2381 2643 2742 
Q 2381 3103 1925 3103 
Q 1469 3103 1208 2742 
Q 947 2381 947 1747 
z
" transform="scale(0.015625)"/>
      </defs>
      <use xlink:href="#DejaVuSans-50"/>
      <use xlink:href="#DejaVuSans-6f" x="56.677734"/>
      <use xlink:href="#DejaVuSans-73" x="117.859375"/>
      <use xlink:href="#DejaVuSans-69" x="169.958984"/>
      <use xlink:href="#DejaVuSans-74" x="197.742188"/>
      <use xlink:href="#DejaVuSans-69" x="236.951172"/>
      <use xlink:href="#DejaVuSans-6f" x="264.734375"/>
      <use xlink:href="#DejaVuSans-6e" x="325.916016"/>
      <use xlink:href="#DejaVuSans-20" x="389.294922"/>
      <use xlink:href="#DejaVuSans-64" x="421.082031"/>
      <use xlink:href="#DejaVuSans-61" x="484.558594"/>
      <use xlink:href="#DejaVuSans-74" x="545.837891"/>
      <use xlink:href="#DejaVuSans-61" x="585.046875"/>
     </g>
    </g>
    <g id="line2d_18">
     <path d="M 55.81899 63.278845 
L 67.81899 63.278845 
L 79.81899 63.278845 
" style="fill: none; stroke: #ff0000; stroke-width: 2; stroke-linecap: round"/>
    </g>
    <g id="text_19">
     <!-- Fit : $f(x) = $$2.944x^2 - 1.124x^1 - 3.543$ -->
     <g transform="translate(89.41899 68.558845) scale(0.12 -0.12)">
      <defs>
       <path id="DejaVuSans-46" d="M 628 4666 
L 3309 4666 
L 3309 4134 
L 1259 4134 
L 1259 2759 
L 3109 2759 
L 3109 2228 
L 1259 2228 
L 1259 0 
L 628 0 
L 628 4666 
z
" transform="scale(0.015625)"/>
       <path id="DejaVuSans-3a" d="M 750 794 
L 1409 794 
L 1409 0 
L 750 0 
L 750 794 
z
M 750 3309 
L 1409 3309 
L 1409 2516 
L 750 2516 
L 750 3309 
z
" transform="scale(0.015625)"/>
       <path id="DejaVuSans-Oblique-66" d="M 3059 4863 
L 2969 4384 
L 2419 4384 
Q 2106 4384 1964 4261 
Q 1822 4138 1753 3809 
L 1691 3500 
L 2638 3500 
L 2553 3053 
L 1606 3053 
L 1013 0 
L 434 0 
L 1031 3053 
L 481 3053 
L 563 3500 
L 1113 3500 
L 1159 3744 
Q 1278 4363 1576 4613 
Q 1875 4863 2516 4863 
L 3059 4863 
z
" transform="scale(0.015625)"/>
       <path id="DejaVuSans-28" d="M 1984 4856 
Q 1566 4138 1362 3434 
Q 1159 2731 1159 2009 
Q 1159 1288 1364 580 
Q 1569 -128 1984 -844 
L 1484 -844 
Q 1016 -109 783 600 
Q 550 1309 550 2009 
Q 550 2706 781 3412 
Q 1013 4119 1484 4856 
L 1984 4856 
z
" transform="scale(0.015625)"/>
       <path id="DejaVuSans-Oblique-78" d="M 3841 3500 
L 2234 1784 
L 3219 0 
L 2559 0 
L 1819 1388 
L 531 0 
L -166 0 
L 1556 1844 
L 641 3500 
L 1300 3500 
L 1972 2234 
L 3144 3500 
L 3841 3500 
z
" transform="scale(0.015625)"/>
       <path id="DejaVuSans-3d" d="M 678 2906 
L 4684 2906 
L 4684 2381 
L 678 2381 
L 678 2906 
z
M 678 1631 
L 4684 1631 
L 4684 1100 
L 678 1100 
L 678 1631 
z
" transform="scale(0.015625)"/>
       <path id="DejaVuSans-2e" d="M 684 794 
L 1344 794 
L 1344 0 
L 684 0 
L 684 794 
z
" transform="scale(0.015625)"/>
       <path id="DejaVuSans-39" d="M 703 97 
L 703 672 
Q 941 559 1184 500 
Q 1428 441 1663 441 
Q 2288 441 2617 861 
Q 2947 1281 2994 2138 
Q 2813 1869 2534 1725 
Q 2256 1581 1919 1581 
Q 1219 1581 811 2004 
Q 403 2428 403 3163 
Q 403 3881 828 4315 
Q 1253 4750 1959 4750 
Q 2769 4750 3195 4129 
Q 3622 3509 3622 2328 
Q 3622 1225 3098 567 
Q 2575 -91 1691 -91 
Q 1453 -91 1209 -44 
Q 966 3 703 97 
z
M 1959 2075 
Q 2384 2075 2632 2365 
Q 2881 2656 2881 3163 
Q 2881 3666 2632 3958 
Q 2384 4250 1959 4250 
Q 1534 4250 1286 3958 
Q 1038 3666 1038 3163 
Q 1038 2656 1286 2365 
Q 1534 2075 1959 2075 
z
" transform="scale(0.015625)"/>
       <path id="DejaVuSans-2212" d="M 678 2272 
L 4684 2272 
L 4684 1741 
L 678 1741 
L 678 2272 
z
" transform="scale(0.015625)"/>
      </defs>
      <use xlink:href="#DejaVuSans-46" transform="translate(0 0.765625)"/>
      <use xlink:href="#DejaVuSans-69" transform="translate(57.519531 0.765625)"/>
      <use xlink:href="#DejaVuSans-74" transform="translate(85.302734 0.765625)"/>
      <use xlink:href="#DejaVuSans-20" transform="translate(124.511719 0.765625)"/>
      <use xlink:href="#DejaVuSans-3a" transform="translate(156.298828 0.765625)"/>
      <use xlink:href="#DejaVuSans-20" transform="translate(189.990234 0.765625)"/>
      <use xlink:href="#DejaVuSans-Oblique-66" transform="translate(221.777344 0.765625)"/>
      <use xlink:href="#DejaVuSans-28" transform="translate(256.982422 0.765625)"/>
      <use xlink:href="#DejaVuSans-Oblique-78" transform="translate(295.996094 0.765625)"/>
      <use xlink:href="#DejaVuSans-29" transform="translate(355.175781 0.765625)"/>
      <use xlink:href="#DejaVuSans-3d" transform="translate(413.671875 0.765625)"/>
      <use xlink:href="#DejaVuSans-32" transform="translate(516.943359 0.765625)"/>
      <use xlink:href="#DejaVuSans-2e" transform="translate(580.566406 0.765625)"/>
      <use xlink:href="#DejaVuSans-39" transform="translate(612.353516 0.765625)"/>
      <use xlink:href="#DejaVuSans-34" transform="translate(675.976562 0.765625)"/>
      <use xlink:href="#DejaVuSans-34" transform="translate(739.599609 0.765625)"/>
      <use xlink:href="#DejaVuSans-Oblique-78" transform="translate(803.222656 0.765625)"/>
      <use xlink:href="#DejaVuSans-32" transform="translate(866.86849 39.046875) scale(0.7)"/>
      <use xlink:href="#DejaVuSans-2212" transform="translate(933.621419 0.765625)"/>
      <use xlink:href="#DejaVuSans-31" transform="translate(1036.892904 0.765625)"/>
      <use xlink:href="#DejaVuSans-2e" transform="translate(1100.515951 0.765625)"/>
      <use xlink:href="#DejaVuSans-31" transform="translate(1132.30306 0.765625)"/>
      <use xlink:href="#DejaVuSans-32" transform="translate(1195.926107 0.765625)"/>
      <use xlink:href="#DejaVuSans-34" transform="translate(1259.549154 0.765625)"/>
      <use xlink:href="#DejaVuSans-Oblique-78" transform="translate(1323.172201 0.765625)"/>
      <use xlink:href="#DejaVuSans-31" transform="translate(1386.818034 39.046875) scale(0.7)"/>
      <use xlink:href="#DejaVuSans-2212" transform="translate(1453.570964 0.765625)"/>
      <use xlink:href="#DejaVuSans-33" transform="translate(1556.842448 0.765625)"/>
      <use xlink:href="#DejaVuSans-2e" transform="translate(1620.465495 0.765625)"/>
      <use xlink:href="#DejaVuSans-35" transform="translate(1652.252604 0.765625)"/>
      <use xlink:href="#DejaVuSans-34" transform="translate(1715.875651 0.765625)"/>
      <use xlink:href="#DejaVuSans-33" transform="translate(1779.498698 0.765625)"/>
     </g>
    </g>
   </g>
  </g>
  <g id="axes_2">
   <g id="patch_8">
    <path d="M 407.525625 326.27226 
L 716.99976 326.27226 
L 716.99976 28.118845 
L 407.525625 28.118845 
z
" style="fill: #ffffff"/>
   </g>
   <g id="patch_9">
    <path d="M 421.592631 326.27226 
L 421.592631 297.625834 
L 440.348639 297.625834 
L 440.348639 311.949047 
L 459.104647 311.949047 
L 459.104647 283.30262 
L 477.860656 283.30262 
L 477.860656 211.686554 
L 496.616664 211.686554 
L 496.616664 240.332981 
L 515.372672 240.332981 
L 515.372672 154.393702 
L 534.12868 154.393702 
L 534.12868 140.070488 
L 552.884688 140.070488 
L 552.884688 82.777636 
L 571.640697 82.777636 
L 571.640697 154.393702 
L 590.396705 154.393702 
L 590.396705 183.040128 
L 609.152713 183.040128 
L 609.152713 283.30262 
L 627.908721 283.30262 
L 627.908721 268.979407 
L 646.664729 268.979407 
L 646.664729 268.979407 
L 665.420737 268.979407 
L 665.420737 297.625834 
L 684.176746 297.625834 
L 684.176746 283.30262 
L 702.932754 283.30262 
L 702.932754 326.27226 
L 684.176746 326.27226 
L 684.176746 326.27226 
L 665.420737 326.27226 
L 665.420737 326.27226 
L 646.664729 326.27226 
L 646.664729 326.27226 
L 627.908721 326.27226 
L 627.908721 326.27226 
L 609.152713 326.27226 
L 609.152713 326.27226 
L 590.396705 326.27226 
L 590.396705 326.27226 
L 571.640697 326.27226 
L 571.640697 326.27226 
L 552.884688 326.27226 
L 552.884688 326.27226 
L 534.12868 326.27226 
L 534.12868 326.27226 
L 515.372672 326.27226 
L 515.372672 326.27226 
L 496.616664 326.27226 
L 496.616664 326.27226 
L 477.860656 326.27226 
L 477.860656 326.27226 
L 459.104647 326.27226 
L 459.104647 326.27226 
L 440.348639 326.27226 
L 440.348639 326.27226 
z
" clip-path="url(#p81d87a7bb9)" style="fill: #3e82a0; fill-opacity: 0.3; stroke: #3e82a0; stroke-width: 2; stroke-linejoin: miter"/>
   </g>
   <g id="LineCollection_1">
    <path d="M 503.985738 326.27226 
L 503.985738 209.76493 
" clip-path="url(#p81d87a7bb9)" style="fill: none; stroke-dasharray: 5.55,2.4; stroke-dashoffset: 0; stroke: #000000; stroke-width: 1.5"/>
    <path d="M 615.574496 326.27226 
L 615.574496 209.76493 
" clip-path="url(#p81d87a7bb9)" style="fill: none; stroke-dasharray: 5.55,2.4; stroke-dashoffset: 0; stroke: #000000; stroke-width: 1.5"/>
   </g>
   <g id="LineCollection_2">
    <path d="M 559.780117 326.27226 
L 559.780117 134.184147 
" clip-path="url(#p81d87a7bb9)" style="fill: none; stroke-dasharray: 5.55,2.4; stroke-dashoffset: 0; stroke: #ff0000; stroke-width: 1.5"/>
   </g>
   <g id="matplotlib.axis_3">
    <g id="xtick_7">
     <g id="line2d_19">
      <g>
       <use xlink:href="#maa15390a62" x="451.656061" y="326.27226" style="stroke: #000000; stroke-width: 0.8"/>
      </g>
     </g>
     <g id="text_20">
      <!-- −20 -->
      <g transform="translate(438.993249 338.890385) scale(0.12 -0.12)">
       <use xlink:href="#DejaVuSans-2212"/>
       <use xlink:href="#DejaVuSans-32" x="83.789062"/>
       <use xlink:href="#DejaVuSans-30" x="147.412109"/>
      </g>
     </g>
    </g>
    <g id="xtick_8">
     <g id="line2d_20">
      <g>
       <use xlink:href="#maa15390a62" x="505.718089" y="326.27226" style="stroke: #000000; stroke-width: 0.8"/>
      </g>
     </g>
     <g id="text_21">
      <!-- −10 -->
      <g transform="translate(493.055277 338.890385) scale(0.12 -0.12)">
       <use xlink:href="#DejaVuSans-2212"/>
       <use xlink:href="#DejaVuSans-31" x="83.789062"/>
       <use xlink:href="#DejaVuSans-30" x="147.412109"/>
      </g>
     </g>
    </g>
    <g id="xtick_9">
     <g id="line2d_21">
      <g>
       <use xlink:href="#maa15390a62" x="559.780117" y="326.27226" style="stroke: #000000; stroke-width: 0.8"/>
      </g>
     </g>
     <g id="text_22">
      <!-- 0 -->
      <g transform="translate(555.962617 338.890385) scale(0.12 -0.12)">
       <use xlink:href="#DejaVuSans-30"/>
      </g>
     </g>
    </g>
    <g id="xtick_10">
     <g id="line2d_22">
      <g>
       <use xlink:href="#maa15390a62" x="613.842145" y="326.27226" style="stroke: #000000; stroke-width: 0.8"/>
      </g>
     </g>
     <g id="text_23">
      <!-- 10 -->
      <g transform="translate(606.207145 338.890385) scale(0.12 -0.12)">
       <use xlink:href="#DejaVuSans-31"/>
       <use xlink:href="#DejaVuSans-30" x="63.623047"/>
      </g>
     </g>
    </g>
    <g id="xtick_11">
     <g id="line2d_23">
      <g>
       <use xlink:href="#maa15390a62" x="667.904173" y="326.27226" style="stroke: #000000; stroke-width: 0.8"/>
      </g>
     </g>
     <g id="text_24">
      <!-- 20 -->
      <g transform="translate(660.269173 338.890385) scale(0.12 -0.12)">
       <use xlink:href="#DejaVuSans-32"/>
       <use xlink:href="#DejaVuSans-30" x="63.623047"/>
      </g>
     </g>
    </g>
    <g id="text_25">
     <!-- Distance from fit [mm] -->
     <g transform="translate(493.845817 354.504135) scale(0.12 -0.12)">
      <defs>
       <path id="DejaVuSans-44" d="M 1259 4147 
L 1259 519 
L 2022 519 
Q 2988 519 3436 956 
Q 3884 1394 3884 2338 
Q 3884 3275 3436 3711 
Q 2988 4147 2022 4147 
L 1259 4147 
z
M 628 4666 
L 1925 4666 
Q 3281 4666 3915 4102 
Q 4550 3538 4550 2338 
Q 4550 1131 3912 565 
Q 3275 0 1925 0 
L 628 0 
L 628 4666 
z
" transform="scale(0.015625)"/>
       <path id="DejaVuSans-72" d="M 2631 2963 
Q 2534 3019 2420 3045 
Q 2306 3072 2169 3072 
Q 1681 3072 1420 2755 
Q 1159 2438 1159 1844 
L 1159 0 
L 581 0 
L 581 3500 
L 1159 3500 
L 1159 2956 
Q 1341 3275 1631 3429 
Q 1922 3584 2338 3584 
Q 2397 3584 2469 3576 
Q 2541 3569 2628 3553 
L 2631 2963 
z
" transform="scale(0.015625)"/>
      </defs>
      <use xlink:href="#DejaVuSans-44"/>
      <use xlink:href="#DejaVuSans-69" x="77.001953"/>
      <use xlink:href="#DejaVuSans-73" x="104.785156"/>
      <use xlink:href="#DejaVuSans-74" x="156.884766"/>
      <use xlink:href="#DejaVuSans-61" x="196.09375"/>
      <use xlink:href="#DejaVuSans-6e" x="257.373047"/>
      <use xlink:href="#DejaVuSans-63" x="320.751953"/>
      <use xlink:href="#DejaVuSans-65" x="375.732422"/>
      <use xlink:href="#DejaVuSans-20" x="437.255859"/>
      <use xlink:href="#DejaVuSans-66" x="469.042969"/>
      <use xlink:href="#DejaVuSans-72" x="504.248047"/>
      <use xlink:href="#DejaVuSans-6f" x="543.111328"/>
      <use xlink:href="#DejaVuSans-6d" x="604.292969"/>
      <use xlink:href="#DejaVuSans-20" x="701.705078"/>
      <use xlink:href="#DejaVuSans-66" x="733.492188"/>
      <use xlink:href="#DejaVuSans-69" x="768.697266"/>
      <use xlink:href="#DejaVuSans-74" x="796.480469"/>
      <use xlink:href="#DejaVuSans-20" x="835.689453"/>
      <use xlink:href="#DejaVuSans-5b" x="867.476562"/>
      <use xlink:href="#DejaVuSans-6d" x="906.490234"/>
      <use xlink:href="#DejaVuSans-6d" x="1003.902344"/>
      <use xlink:href="#DejaVuSans-5d" x="1101.314453"/>
     </g>
    </g>
   </g>
   <g id="matplotlib.axis_4">
    <g id="ytick_8">
     <g id="line2d_24">
      <g>
       <use xlink:href="#m9b44c874b3" x="407.525625" y="326.27226" style="stroke: #000000; stroke-width: 0.8"/>
      </g>
     </g>
     <g id="text_26">
      <!-- 0.00 -->
      <g transform="translate(377.306875 330.831322) scale(0.12 -0.12)">
       <use xlink:href="#DejaVuSans-30"/>
       <use xlink:href="#DejaVuSans-2e" x="63.623047"/>
       <use xlink:href="#DejaVuSans-30" x="95.410156"/>
       <use xlink:href="#DejaVuSans-30" x="159.033203"/>
      </g>
     </g>
    </g>
    <g id="ytick_9">
     <g id="line2d_25">
      <g>
       <use xlink:href="#m9b44c874b3" x="407.525625" y="276.580024" style="stroke: #000000; stroke-width: 0.8"/>
      </g>
     </g>
     <g id="text_27">
      <!-- 0.01 -->
      <g transform="translate(377.306875 281.139087) scale(0.12 -0.12)">
       <use xlink:href="#DejaVuSans-30"/>
       <use xlink:href="#DejaVuSans-2e" x="63.623047"/>
       <use xlink:href="#DejaVuSans-30" x="95.410156"/>
       <use xlink:href="#DejaVuSans-31" x="159.033203"/>
      </g>
     </g>
    </g>
    <g id="ytick_10">
     <g id="line2d_26">
      <g>
       <use xlink:href="#m9b44c874b3" x="407.525625" y="226.887788" style="stroke: #000000; stroke-width: 0.8"/>
      </g>
     </g>
     <g id="text_28">
      <!-- 0.02 -->
      <g transform="translate(377.306875 231.446851) scale(0.12 -0.12)">
       <use xlink:href="#DejaVuSans-30"/>
       <use xlink:href="#DejaVuSans-2e" x="63.623047"/>
       <use xlink:href="#DejaVuSans-30" x="95.410156"/>
       <use xlink:href="#DejaVuSans-32" x="159.033203"/>
      </g>
     </g>
    </g>
    <g id="ytick_11">
     <g id="line2d_27">
      <g>
       <use xlink:href="#m9b44c874b3" x="407.525625" y="177.195553" style="stroke: #000000; stroke-width: 0.8"/>
      </g>
     </g>
     <g id="text_29">
      <!-- 0.03 -->
      <g transform="translate(377.306875 181.754615) scale(0.12 -0.12)">
       <use xlink:href="#DejaVuSans-30"/>
       <use xlink:href="#DejaVuSans-2e" x="63.623047"/>
       <use xlink:href="#DejaVuSans-30" x="95.410156"/>
       <use xlink:href="#DejaVuSans-33" x="159.033203"/>
      </g>
     </g>
    </g>
    <g id="ytick_12">
     <g id="line2d_28">
      <g>
       <use xlink:href="#m9b44c874b3" x="407.525625" y="127.503317" style="stroke: #000000; stroke-width: 0.8"/>
      </g>
     </g>
     <g id="text_30">
      <!-- 0.04 -->
      <g transform="translate(377.306875 132.062379) scale(0.12 -0.12)">
       <use xlink:href="#DejaVuSans-30"/>
       <use xlink:href="#DejaVuSans-2e" x="63.623047"/>
       <use xlink:href="#DejaVuSans-30" x="95.410156"/>
       <use xlink:href="#DejaVuSans-34" x="159.033203"/>
      </g>
     </g>
    </g>
    <g id="ytick_13">
     <g id="line2d_29">
      <g>
       <use xlink:href="#m9b44c874b3" x="407.525625" y="77.811081" style="stroke: #000000; stroke-width: 0.8"/>
      </g>
     </g>
     <g id="text_31">
      <!-- 0.05 -->
      <g transform="translate(377.306875 82.370143) scale(0.12 -0.12)">
       <use xlink:href="#DejaVuSans-30"/>
       <use xlink:href="#DejaVuSans-2e" x="63.623047"/>
       <use xlink:href="#DejaVuSans-30" x="95.410156"/>
       <use xlink:href="#DejaVuSans-35" x="159.033203"/>
      </g>
     </g>
    </g>
    <g id="ytick_14">
     <g id="line2d_30">
      <g>
       <use xlink:href="#m9b44c874b3" x="407.525625" y="28.118845" style="stroke: #000000; stroke-width: 0.8"/>
      </g>
     </g>
     <g id="text_32">
      <!-- 0.06 -->
      <g transform="translate(377.306875 32.677908) scale(0.12 -0.12)">
       <use xlink:href="#DejaVuSans-30"/>
       <use xlink:href="#DejaVuSans-2e" x="63.623047"/>
       <use xlink:href="#DejaVuSans-30" x="95.410156"/>
       <use xlink:href="#DejaVuSans-36" x="159.033203"/>
      </g>
     </g>
    </g>
    <g id="text_33">
     <!-- Frequency [-] -->
     <g transform="translate(370.81125 216.944615) rotate(-90) scale(0.12 -0.12)">
      <defs>
       <path id="DejaVuSans-71" d="M 947 1747 
Q 947 1113 1208 752 
Q 1469 391 1925 391 
Q 2381 391 2643 752 
Q 2906 1113 2906 1747 
Q 2906 2381 2643 2742 
Q 2381 3103 1925 3103 
Q 1469 3103 1208 2742 
Q 947 2381 947 1747 
z
M 2906 525 
Q 2725 213 2448 61 
Q 2172 -91 1784 -91 
Q 1150 -91 751 415 
Q 353 922 353 1747 
Q 353 2572 751 3078 
Q 1150 3584 1784 3584 
Q 2172 3584 2448 3432 
Q 2725 3281 2906 2969 
L 2906 3500 
L 3481 3500 
L 3481 -1331 
L 2906 -1331 
L 2906 525 
z
" transform="scale(0.015625)"/>
       <path id="DejaVuSans-79" d="M 2059 -325 
Q 1816 -950 1584 -1140 
Q 1353 -1331 966 -1331 
L 506 -1331 
L 506 -850 
L 844 -850 
Q 1081 -850 1212 -737 
Q 1344 -625 1503 -206 
L 1606 56 
L 191 3500 
L 800 3500 
L 1894 763 
L 2988 3500 
L 3597 3500 
L 2059 -325 
z
" transform="scale(0.015625)"/>
       <path id="DejaVuSans-2d" d="M 313 2009 
L 1997 2009 
L 1997 1497 
L 313 1497 
L 313 2009 
z
" transform="scale(0.015625)"/>
      </defs>
      <use xlink:href="#DejaVuSans-46"/>
      <use xlink:href="#DejaVuSans-72" x="50.269531"/>
      <use xlink:href="#DejaVuSans-65" x="89.132812"/>
      <use xlink:href="#DejaVuSans-71" x="150.65625"/>
      <use xlink:href="#DejaVuSans-75" x="214.132812"/>
      <use xlink:href="#DejaVuSans-65" x="277.511719"/>
      <use xlink:href="#DejaVuSans-6e" x="339.035156"/>
      <use xlink:href="#DejaVuSans-63" x="402.414062"/>
      <use xlink:href="#DejaVuSans-79" x="457.394531"/>
      <use xlink:href="#DejaVuSans-20" x="516.574219"/>
      <use xlink:href="#DejaVuSans-5b" x="548.361328"/>
      <use xlink:href="#DejaVuSans-2d" x="587.375"/>
      <use xlink:href="#DejaVuSans-5d" x="623.458984"/>
     </g>
    </g>
   </g>
   <g id="line2d_31">
    <path d="M 421.592631 317.329323 
L 425.539286 315.643587 
L 429.485941 313.703139 
L 433.432596 311.482614 
L 436.815443 309.337156 
L 440.198291 306.951624 
L 443.581138 304.310937 
L 446.963985 301.400927 
L 450.346832 298.208675 
L 453.729679 294.722888 
L 457.112526 290.934273 
L 460.495374 286.83594 
L 463.878221 282.423787 
L 467.824876 276.878611 
L 471.771531 270.909882 
L 475.718186 264.529597 
L 479.664841 257.757685 
L 484.175304 249.575583 
L 489.249574 239.874642 
L 494.887653 228.602244 
L 502.780963 212.280299 
L 514.05712 188.971842 
L 519.131391 178.95844 
L 523.641854 170.531363 
L 527.588509 163.637367 
L 530.971356 158.156684 
L 534.354203 153.128964 
L 537.173243 149.322122 
L 539.992282 145.892646 
L 542.811321 142.865507 
L 545.066553 140.748572 
L 547.321784 138.913562 
L 549.577016 137.369285 
L 551.832247 136.123201 
L 554.087479 135.181358 
L 556.34271 134.548347 
L 558.034134 134.278176 
L 559.725557 134.184239 
L 561.416981 134.266793 
L 563.108404 134.525611 
L 564.799828 134.95998 
L 567.055059 135.810086 
L 569.310291 136.965956 
L 571.565522 138.421975 
L 573.820754 140.171097 
L 576.075985 142.204909 
L 578.331217 144.513697 
L 581.150256 147.769589 
L 583.969295 151.414109 
L 586.788334 155.420931 
L 590.171182 160.667092 
L 593.554029 166.341165 
L 597.500684 173.427468 
L 602.011147 182.028911 
L 607.649225 193.330631 
L 616.670151 212.052536 
L 626.254885 231.809235 
L 631.892963 242.950626 
L 636.967234 252.496715 
L 641.477697 260.518108 
L 645.424352 267.135931 
L 649.371007 273.35315 
L 653.317662 279.153083 
L 657.264317 284.526743 
L 660.647164 288.791791 
L 664.030011 292.744567 
L 667.412859 296.390523 
L 670.795706 299.737723 
L 674.178553 302.796444 
L 677.5614 305.578788 
L 680.944247 308.098301 
L 684.327094 310.36962 
L 687.709942 312.408137 
L 691.656597 314.513316 
L 695.603252 316.348614 
L 699.549907 317.939265 
L 702.932754 319.126637 
L 702.932754 319.126637 
" clip-path="url(#p81d87a7bb9)" style="fill: none; stroke: #000000; stroke-width: 1.5; stroke-linecap: round"/>
   </g>
   <g id="patch_10">
    <path d="M 407.525625 326.27226 
L 407.525625 28.118845 
" style="fill: none; stroke: #000000; stroke-linejoin: miter; stroke-linecap: square"/>
   </g>
   <g id="patch_11">
    <path d="M 716.99976 326.27226 
L 716.99976 28.118845 
" style="fill: none; stroke: #000000; stroke-linejoin: miter; stroke-linecap: square"/>
   </g>
   <g id="patch_12">
    <path d="M 407.525625 326.27226 
L 716.99976 326.27226 
" style="fill: none; stroke: #000000; stroke-linejoin: miter; stroke-linecap: square"/>
   </g>
   <g id="patch_13">
    <path d="M 407.525625 28.118845 
L 716.99976 28.118845 
" style="fill: none; stroke: #000000; stroke-linejoin: miter; stroke-linecap: square"/>
   </g>
   <g id="text_34">
    <!-- b) -->
    <g transform="translate(402.525625 18.118845) scale(0.12 -0.12)">
     <defs>
      <path id="DejaVuSans-62" d="M 3116 1747 
Q 3116 2381 2855 2742 
Q 2594 3103 2138 3103 
Q 1681 3103 1420 2742 
Q 1159 2381 1159 1747 
Q 1159 1113 1420 752 
Q 1681 391 2138 391 
Q 2594 391 2855 752 
Q 3116 1113 3116 1747 
z
M 1159 2969 
Q 1341 3281 1617 3432 
Q 1894 3584 2278 3584 
Q 2916 3584 3314 3078 
Q 3713 2572 3713 1747 
Q 3713 922 3314 415 
Q 2916 -91 2278 -91 
Q 1894 -91 1617 61 
Q 1341 213 1159 525 
L 1159 0 
L 581 0 
L 581 4863 
L 1159 4863 
L 1159 2969 
z
" transform="scale(0.015625)"/>
     </defs>
     <use xlink:href="#DejaVuSans-62"/>
     <use xlink:href="#DejaVuSans-29" x="63.476562"/>
    </g>
   </g>
   <g id="text_35">
    <!-- Histogram of fit residuals -->
    <g transform="translate(486.605505 22.118845) scale(0.12 -0.12)">
     <defs>
      <path id="DejaVuSans-48" d="M 628 4666 
L 1259 4666 
L 1259 2753 
L 3553 2753 
L 3553 4666 
L 4184 4666 
L 4184 0 
L 3553 0 
L 3553 2222 
L 1259 2222 
L 1259 0 
L 628 0 
L 628 4666 
z
" transform="scale(0.015625)"/>
      <path id="DejaVuSans-67" d="M 2906 1791 
Q 2906 2416 2648 2759 
Q 2391 3103 1925 3103 
Q 1463 3103 1205 2759 
Q 947 2416 947 1791 
Q 947 1169 1205 825 
Q 1463 481 1925 481 
Q 2391 481 2648 825 
Q 2906 1169 2906 1791 
z
M 3481 434 
Q 3481 -459 3084 -895 
Q 2688 -1331 1869 -1331 
Q 1566 -1331 1297 -1286 
Q 1028 -1241 775 -1147 
L 775 -588 
Q 1028 -725 1275 -790 
Q 1522 -856 1778 -856 
Q 2344 -856 2625 -561 
Q 2906 -266 2906 331 
L 2906 616 
Q 2728 306 2450 153 
Q 2172 0 1784 0 
Q 1141 0 747 490 
Q 353 981 353 1791 
Q 353 2603 747 3093 
Q 1141 3584 1784 3584 
Q 2172 3584 2450 3431 
Q 2728 3278 2906 2969 
L 2906 3500 
L 3481 3500 
L 3481 434 
z
" transform="scale(0.015625)"/>
      <path id="DejaVuSans-6c" d="M 603 4863 
L 1178 4863 
L 1178 0 
L 603 0 
L 603 4863 
z
" transform="scale(0.015625)"/>
     </defs>
     <use xlink:href="#DejaVuSans-48"/>
     <use xlink:href="#DejaVuSans-69" x="75.195312"/>
     <use xlink:href="#DejaVuSans-73" x="102.978516"/>
     <use xlink:href="#DejaVuSans-74" x="155.078125"/>
     <use xlink:href="#DejaVuSans-6f" x="194.287109"/>
     <use xlink:href="#DejaVuSans-67" x="255.46875"/>
     <use xlink:href="#DejaVuSans-72" x="318.945312"/>
     <use xlink:href="#DejaVuSans-61" x="360.058594"/>
     <use xlink:href="#DejaVuSans-6d" x="421.337891"/>
     <use xlink:href="#DejaVuSans-20" x="518.75"/>
     <use xlink:href="#DejaVuSans-6f" x="550.537109"/>
     <use xlink:href="#DejaVuSans-66" x="611.71875"/>
     <use xlink:href="#DejaVuSans-20" x="646.923828"/>
     <use xlink:href="#DejaVuSans-66" x="678.710938"/>
     <use xlink:href="#DejaVuSans-69" x="713.916016"/>
     <use xlink:href="#DejaVuSans-74" x="741.699219"/>
     <use xlink:href="#DejaVuSans-20" x="780.908203"/>
     <use xlink:href="#DejaVuSans-72" x="812.695312"/>
     <use xlink:href="#DejaVuSans-65" x="851.558594"/>
     <use xlink:href="#DejaVuSans-73" x="913.082031"/>
     <use xlink:href="#DejaVuSans-69" x="965.181641"/>
     <use xlink:href="#DejaVuSans-64" x="992.964844"/>
     <use xlink:href="#DejaVuSans-75" x="1056.441406"/>
     <use xlink:href="#DejaVuSans-61" x="1119.820312"/>
     <use xlink:href="#DejaVuSans-6c" x="1181.099609"/>
     <use xlink:href="#DejaVuSans-73" x="1208.882812"/>
    </g>
   </g>
   <g id="legend_2">
    <g id="patch_14">
     <path d="M 535.55976 56.798845 
L 708.59976 56.798845 
Q 710.99976 56.798845 710.99976 54.398845 
L 710.99976 36.518845 
Q 710.99976 34.118845 708.59976 34.118845 
L 535.55976 34.118845 
Q 533.15976 34.118845 533.15976 36.518845 
L 533.15976 54.398845 
Q 533.15976 56.798845 535.55976 56.798845 
z
" style="fill: #ffffff; opacity: 0.8"/>
    </g>
    <g id="patch_15">
     <path d="M 537.95976 51.998845 
L 537.95976 41.534845 
L 543.95976 41.534845 
L 543.95976 45.458845 
L 549.95976 45.458845 
L 549.95976 38.918845 
L 555.95976 38.918845 
L 555.95976 48.074845 
L 561.95976 48.074845 
L 561.95976 51.998845 
z
" style="fill: #3e82a0; fill-opacity: 0.3; stroke: #3e82a0; stroke-width: 2; stroke-linejoin: miter"/>
    </g>
    <g id="text_36">
     <!-- $\mu$ = 0.000, $\sigma$ = 10.320 -->
     <g transform="translate(571.55976 49.478845) scale(0.12 -0.12)">
      <defs>
       <path id="DejaVuSans-Oblique-3bc" d="M -84 -1331 
L 856 3500 
L 1434 3500 
L 1009 1322 
Q 997 1256 987 1175 
Q 978 1094 978 1013 
Q 978 722 1161 565 
Q 1344 409 1684 409 
Q 2147 409 2431 671 
Q 2716 934 2816 1459 
L 3213 3500 
L 3788 3500 
L 3266 809 
Q 3253 750 3248 706 
Q 3244 663 3244 628 
Q 3244 531 3283 486 
Q 3322 441 3406 441 
Q 3438 441 3492 456 
Q 3547 472 3647 513 
L 3559 50 
Q 3422 -19 3297 -55 
Q 3172 -91 3053 -91 
Q 2847 -91 2730 40 
Q 2613 172 2613 403 
Q 2438 153 2195 31 
Q 1953 -91 1625 -91 
Q 1334 -91 1117 43 
Q 900 178 831 397 
L 494 -1331 
L -84 -1331 
z
" transform="scale(0.015625)"/>
       <path id="DejaVuSans-2c" d="M 750 794 
L 1409 794 
L 1409 256 
L 897 -744 
L 494 -744 
L 750 256 
L 750 794 
z
" transform="scale(0.015625)"/>
       <path id="DejaVuSans-Oblique-3c3" d="M 2219 3044 
Q 1744 3044 1422 2700 
Q 1081 2341 969 1747 
Q 844 1119 1044 756 
Q 1241 397 1706 397 
Q 2166 397 2503 759 
Q 2844 1122 2966 1747 
Q 3075 2319 2881 2700 
Q 2700 3044 2219 3044 
z
M 2309 3503 
L 4219 3500 
L 4106 2925 
L 3463 2925 
Q 3706 2438 3575 1747 
Q 3406 888 2884 400 
Q 2359 -91 1609 -91 
Q 856 -91 525 400 
Q 194 888 363 1747 
Q 528 2609 1050 3097 
Q 1484 3503 2309 3503 
z
" transform="scale(0.015625)"/>
      </defs>
      <use xlink:href="#DejaVuSans-Oblique-3bc" transform="translate(0 0.78125)"/>
      <use xlink:href="#DejaVuSans-20" transform="translate(63.623047 0.78125)"/>
      <use xlink:href="#DejaVuSans-3d" transform="translate(95.410156 0.78125)"/>
      <use xlink:href="#DejaVuSans-20" transform="translate(179.199219 0.78125)"/>
      <use xlink:href="#DejaVuSans-30" transform="translate(210.986328 0.78125)"/>
      <use xlink:href="#DejaVuSans-2e" transform="translate(274.609375 0.78125)"/>
      <use xlink:href="#DejaVuSans-30" transform="translate(306.396484 0.78125)"/>
      <use xlink:href="#DejaVuSans-30" transform="translate(370.019531 0.78125)"/>
      <use xlink:href="#DejaVuSans-30" transform="translate(433.642578 0.78125)"/>
      <use xlink:href="#DejaVuSans-2c" transform="translate(497.265625 0.78125)"/>
      <use xlink:href="#DejaVuSans-20" transform="translate(529.052734 0.78125)"/>
      <use xlink:href="#DejaVuSans-Oblique-3c3" transform="translate(560.839844 0.78125)"/>
      <use xlink:href="#DejaVuSans-20" transform="translate(624.21875 0.78125)"/>
      <use xlink:href="#DejaVuSans-3d" transform="translate(656.005859 0.78125)"/>
      <use xlink:href="#DejaVuSans-20" transform="translate(739.794922 0.78125)"/>
      <use xlink:href="#DejaVuSans-31" transform="translate(771.582031 0.78125)"/>
      <use xlink:href="#DejaVuSans-30" transform="translate(835.205078 0.78125)"/>
      <use xlink:href="#DejaVuSans-2e" transform="translate(898.828125 0.78125)"/>
      <use xlink:href="#DejaVuSans-33" transform="translate(930.615234 0.78125)"/>
      <use xlink:href="#DejaVuSans-32" transform="translate(994.238281 0.78125)"/>
      <use xlink:href="#DejaVuSans-30" transform="translate(1057.861328 0.78125)"/>
     </g>
    </g>
   </g>
  </g>
 </g>
 <defs>
  <clipPath id="p949693a9de">
   <rect x="45.01899" y="28.118845" width="309.474135" height="298.153415"/>
  </clipPath>
  <clipPath id="p81d87a7bb9">
   <rect x="407.525625" y="28.118845" width="309.474135" height="298.153415"/>
  </clipPath>
 </defs>
</svg>
