<?xml version="1.0" encoding="UTF-8" standalone="no"?>
<!-- Created with Inkscape (http://www.inkscape.org/) -->

<svg
   width="504.86749"
   height="508.11673"
   viewBox="0 0 133.57952 134.43922"
   version="1.1"
   id="svg1"
   inkscape:export-filename="Figure.svg"
   inkscape:export-xdpi="96"
   inkscape:export-ydpi="96"
   sodipodi:docname="SmartFigure.svg"
   inkscape:version="1.4.3 (0d15f75, 2025-12-25)"
   xml:space="preserve"
   xmlns:inkscape="http://www.inkscape.org/namespaces/inkscape"
   xmlns:sodipodi="http://sodipodi.sourceforge.net/DTD/sodipodi-0.dtd"
   xmlns:xlink="http://www.w3.org/1999/xlink"
   xmlns="http://www.w3.org/2000/svg"
   xmlns:svg="http://www.w3.org/2000/svg"><sodipodi:namedview
     id="namedview1"
     pagecolor="#ffffff"
     bordercolor="#eeeeee"
     borderopacity="1"
     inkscape:showpageshadow="0"
     inkscape:pageopacity="0"
     inkscape:pagecheckerboard="0"
     inkscape:deskcolor="#505050"
     inkscape:document-units="px"
     inkscape:export-bgcolor="#ffffff00"
     showgrid="false"
     inkscape:zoom="0.63006937"
     inkscape:cx="222.19776"
     inkscape:cy="268.22443"
     inkscape:window-width="1440"
     inkscape:window-height="771"
     inkscape:window-x="1920"
     inkscape:window-y="205"
     inkscape:window-maximized="0"
     inkscape:current-layer="layer4" /><defs
     id="defs1"><linearGradient
       id="linearGradient21"
       inkscape:collect="always"><stop
         style="stop-color:#ffffff;stop-opacity:1;"
         offset="0.102"
         id="stop20" /><stop
         style="stop-color:#4d4d4d;stop-opacity:1;"
         offset="0.69599998"
         id="stop21" /></linearGradient><linearGradient
       id="linearGradient18"
       inkscape:collect="always"><stop
         style="stop-color:#4d4d4d;stop-opacity:1;"
         offset="0"
         id="stop18" /><stop
         style="stop-color:#c8c8c8;stop-opacity:1;"
         offset="0.91000003"
         id="stop19" /></linearGradient><linearGradient
       id="linearGradient13"
       inkscape:collect="always"><stop
         style="stop-color:#ffffff;stop-opacity:1;"
         offset="0.102"
         id="stop13" /><stop
         style="stop-color:#4d4d4d;stop-opacity:1;"
         offset="0.69599998"
         id="stop14" /></linearGradient><inkscape:path-effect
       effect="skeletal"
       id="path-effect13"
       is_visible="true"
       lpeversion="1"
       pattern="M 0,4.9921382 C 0,2.2364779 2.2364779,0 4.9921382,0 c 2.7556603,0 4.9921382,2.2364779 4.9921382,4.9921382 0,2.7556603 -2.2364779,4.9921382 -4.9921382,4.9921382 C 2.2364779,9.9842764 0,7.7477985 0,4.9921382 Z"
       copytype="single_stretched"
       prop_scale="1"
       scale_y_rel="false"
       spacing="0"
       normal_offset="0"
       tang_offset="0"
       prop_units="false"
       vertical_pattern="false"
       hide_knot="false"
       fuse_tolerance="0" /><inkscape:path-effect
       effect="skeletal"
       id="path-effect12"
       is_visible="true"
       lpeversion="1"
       pattern="M 0,4.9921382 C 0,2.2364779 2.2364779,0 4.9921382,0 c 2.7556603,0 4.9921382,2.2364779 4.9921382,4.9921382 0,2.7556603 -2.2364779,4.9921382 -4.9921382,4.9921382 C 2.2364779,9.9842764 0,7.7477985 0,4.9921382 Z"
       copytype="single_stretched"
       prop_scale="1"
       scale_y_rel="false"
       spacing="0"
       normal_offset="0"
       tang_offset="0"
       prop_units="false"
       vertical_pattern="false"
       hide_knot="false"
       fuse_tolerance="0" /><inkscape:path-effect
       effect="skeletal"
       id="path-effect11"
       is_visible="true"
       lpeversion="1"
       pattern="M 0,4.9921382 C 0,2.2364779 2.2364779,0 4.9921382,0 c 2.7556603,0 4.9921382,2.2364779 4.9921382,4.9921382 0,2.7556603 -2.2364779,4.9921382 -4.9921382,4.9921382 C 2.2364779,9.9842764 0,7.7477985 0,4.9921382 Z"
       copytype="single_stretched"
       prop_scale="1"
       scale_y_rel="false"
       spacing="0"
       normal_offset="0"
       tang_offset="0"
       prop_units="false"
       vertical_pattern="false"
       hide_knot="false"
       fuse_tolerance="0" /><inkscape:path-effect
       effect="skeletal"
       id="path-effect9"
       is_visible="true"
       lpeversion="1"
       pattern="M 0,4.9921382 C 0,2.2364779 2.2364779,0 4.9921382,0 c 2.7556603,0 4.9921382,2.2364779 4.9921382,4.9921382 0,2.7556603 -2.2364779,4.9921382 -4.9921382,4.9921382 C 2.2364779,9.9842764 0,7.7477985 0,4.9921382 Z"
       copytype="single_stretched"
       prop_scale="1"
       scale_y_rel="false"
       spacing="0"
       normal_offset="0"
       tang_offset="0"
       prop_units="false"
       vertical_pattern="false"
       hide_knot="false"
       fuse_tolerance="0" /><inkscape:path-effect
       effect="skeletal"
       id="path-effect8"
       is_visible="true"
       lpeversion="1"
       pattern="M 0,4.9921382 C 0,2.2364779 2.2364779,0 4.9921382,0 c 2.7556603,0 4.9921382,2.2364779 4.9921382,4.9921382 0,2.7556603 -2.2364779,4.9921382 -4.9921382,4.9921382 C 2.2364779,9.9842764 0,7.7477985 0,4.9921382 Z"
       copytype="single_stretched"
       prop_scale="1"
       scale_y_rel="false"
       spacing="0"
       normal_offset="0"
       tang_offset="0"
       prop_units="false"
       vertical_pattern="false"
       hide_knot="false"
       fuse_tolerance="0" /><inkscape:path-effect
       effect="skeletal"
       id="path-effect7"
       is_visible="true"
       lpeversion="1"
       pattern="M 0,4.9921382 C 0,2.2364779 2.2364779,0 4.9921382,0 c 2.7556603,0 4.9921382,2.2364779 4.9921382,4.9921382 0,2.7556603 -2.2364779,4.9921382 -4.9921382,4.9921382 C 2.2364779,9.9842764 0,7.7477985 0,4.9921382 Z"
       copytype="single_stretched"
       prop_scale="1"
       scale_y_rel="false"
       spacing="0"
       normal_offset="0"
       tang_offset="0"
       prop_units="false"
       vertical_pattern="false"
       hide_knot="false"
       fuse_tolerance="0" /><inkscape:path-effect
       effect="skeletal"
       id="path-effect6"
       is_visible="true"
       lpeversion="1"
       pattern="M 0,4.9921382 C 0,2.2364779 2.2364779,0 4.9921382,0 c 2.7556603,0 4.9921382,2.2364779 4.9921382,4.9921382 0,2.7556603 -2.2364779,4.9921382 -4.9921382,4.9921382 C 2.2364779,9.9842764 0,7.7477985 0,4.9921382 Z"
       copytype="single_stretched"
       prop_scale="1"
       scale_y_rel="false"
       spacing="0"
       normal_offset="0"
       tang_offset="0"
       prop_units="false"
       vertical_pattern="false"
       hide_knot="false"
       fuse_tolerance="0" /><inkscape:path-effect
       effect="skeletal"
       id="path-effect5"
       is_visible="true"
       lpeversion="1"
       pattern="M 0,4.9921382 C 0,2.2364779 2.2364779,0 4.9921382,0 c 2.7556603,0 4.9921382,2.2364779 4.9921382,4.9921382 0,2.7556603 -2.2364779,4.9921382 -4.9921382,4.9921382 C 2.2364779,9.9842764 0,7.7477985 0,4.9921382 Z"
       copytype="single_stretched"
       prop_scale="1"
       scale_y_rel="false"
       spacing="0"
       normal_offset="0"
       tang_offset="0"
       prop_units="false"
       vertical_pattern="false"
       hide_knot="false"
       fuse_tolerance="0" /><inkscape:path-effect
       effect="skeletal"
       id="path-effect4"
       is_visible="true"
       lpeversion="1"
       pattern="M 0,4.9921382 C 0,2.2364779 2.2364779,0 4.9921382,0 c 2.7556603,0 4.9921382,2.2364779 4.9921382,4.9921382 0,2.7556603 -2.2364779,4.9921382 -4.9921382,4.9921382 C 2.2364779,9.9842764 0,7.7477985 0,4.9921382 Z"
       copytype="single_stretched"
       prop_scale="1"
       scale_y_rel="false"
       spacing="0"
       normal_offset="0"
       tang_offset="0"
       prop_units="false"
       vertical_pattern="false"
       hide_knot="false"
       fuse_tolerance="0" /><inkscape:path-effect
       effect="skeletal"
       id="path-effect2"
       is_visible="true"
       lpeversion="1"
       pattern="M 0,4.9921382 C 0,2.2364779 2.2364779,0 4.9921382,0 c 2.7556603,0 4.9921382,2.2364779 4.9921382,4.9921382 0,2.7556603 -2.2364779,4.9921382 -4.9921382,4.9921382 C 2.2364779,9.9842764 0,7.7477985 0,4.9921382 Z"
       copytype="single_stretched"
       prop_scale="1"
       scale_y_rel="false"
       spacing="0"
       normal_offset="0"
       tang_offset="0"
       prop_units="false"
       vertical_pattern="false"
       hide_knot="false"
       fuse_tolerance="0" /><inkscape:path-effect
       effect="skeletal"
       id="path-effect1"
       is_visible="true"
       lpeversion="1"
       pattern="M 0,4.9921382 C 0,2.2364779 2.2364779,0 4.9921382,0 c 2.7556603,0 4.9921382,2.2364779 4.9921382,4.9921382 0,2.7556603 -2.2364779,4.9921382 -4.9921382,4.9921382 C 2.2364779,9.9842764 0,7.7477985 0,4.9921382 Z"
       copytype="single_stretched"
       prop_scale="1"
       scale_y_rel="false"
       spacing="0"
       normal_offset="0"
       tang_offset="0"
       prop_units="false"
       vertical_pattern="false"
       hide_knot="false"
       fuse_tolerance="0" /><inkscape:path-effect
       effect="skeletal"
       id="path-effect13-7"
       is_visible="true"
       lpeversion="1"
       pattern="M 0,4.9921382 C 0,2.2364779 2.2364779,0 4.9921382,0 c 2.7556603,0 4.9921382,2.2364779 4.9921382,4.9921382 0,2.7556603 -2.2364779,4.9921382 -4.9921382,4.9921382 C 2.2364779,9.9842764 0,7.7477985 0,4.9921382 Z"
       copytype="single_stretched"
       prop_scale="1.2761784"
       scale_y_rel="false"
       spacing="0"
       normal_offset="0"
       tang_offset="0"
       prop_units="false"
       vertical_pattern="false"
       hide_knot="false"
       fuse_tolerance="0" /><linearGradient
       inkscape:collect="always"
       xlink:href="#linearGradient13"
       id="linearGradient15"
       gradientUnits="userSpaceOnUse"
       x1="26.681154"
       y1="37.04771"
       x2="73.835907"
       y2="95.278984" /><inkscape:path-effect
       effect="skeletal"
       id="path-effect8-9"
       is_visible="true"
       lpeversion="1"
       pattern="M 0,4.9921382 C 0,2.2364779 2.2364779,0 4.9921382,0 c 2.7556603,0 4.9921382,2.2364779 4.9921382,4.9921382 0,2.7556603 -2.2364779,4.9921382 -4.9921382,4.9921382 C 2.2364779,9.9842764 0,7.7477985 0,4.9921382 Z"
       copytype="single_stretched"
       prop_scale="1"
       scale_y_rel="false"
       spacing="0"
       normal_offset="0"
       tang_offset="0"
       prop_units="false"
       vertical_pattern="false"
       hide_knot="false"
       fuse_tolerance="0" /><inkscape:path-effect
       effect="skeletal"
       id="path-effect13-7-9"
       is_visible="true"
       lpeversion="1"
       pattern="M 0,4.9921382 C 0,2.2364779 2.2364779,0 4.9921382,0 c 2.7556603,0 4.9921382,2.2364779 4.9921382,4.9921382 0,2.7556603 -2.2364779,4.9921382 -4.9921382,4.9921382 C 2.2364779,9.9842764 0,7.7477985 0,4.9921382 Z"
       copytype="single_stretched"
       prop_scale="1"
       scale_y_rel="false"
       spacing="0"
       normal_offset="0"
       tang_offset="0"
       prop_units="false"
       vertical_pattern="false"
       hide_knot="false"
       fuse_tolerance="0" /><inkscape:path-effect
       effect="skeletal"
       id="path-effect13-7-5"
       is_visible="true"
       lpeversion="1"
       pattern="M 0,4.9921382 C 0,2.2364779 2.2364779,0 4.9921382,0 c 2.7556603,0 4.9921382,2.2364779 4.9921382,4.9921382 0,2.7556603 -2.2364779,4.9921382 -4.9921382,4.9921382 C 2.2364779,9.9842764 0,7.7477985 0,4.9921382 Z"
       copytype="single_stretched"
       prop_scale="1.2761784"
       scale_y_rel="false"
       spacing="0"
       normal_offset="0"
       tang_offset="0"
       prop_units="false"
       vertical_pattern="false"
       hide_knot="false"
       fuse_tolerance="0" /><inkscape:path-effect
       effect="skeletal"
       id="path-effect13-7-7"
       is_visible="true"
       lpeversion="1"
       pattern="M 0,4.9921382 C 0,2.2364779 2.2364779,0 4.9921382,0 c 2.7556603,0 4.9921382,2.2364779 4.9921382,4.9921382 0,2.7556603 -2.2364779,4.9921382 -4.9921382,4.9921382 C 2.2364779,9.9842764 0,7.7477985 0,4.9921382 Z"
       copytype="single_stretched"
       prop_scale="1.2761784"
       scale_y_rel="false"
       spacing="0"
       normal_offset="0"
       tang_offset="0"
       prop_units="false"
       vertical_pattern="false"
       hide_knot="false"
       fuse_tolerance="0" /><linearGradient
       inkscape:collect="always"
       xlink:href="#linearGradient21"
       id="linearGradient15-6"
       gradientUnits="userSpaceOnUse"
       x1="26.681154"
       y1="37.04771"
       x2="73.835907"
       y2="95.278984" /><inkscape:path-effect
       effect="skeletal"
       id="path-effect13-7-1"
       is_visible="true"
       lpeversion="1"
       pattern="M 0,4.9921382 C 0,2.2364779 2.2364779,0 4.9921382,0 c 2.7556603,0 4.9921382,2.2364779 4.9921382,4.9921382 0,2.7556603 -2.2364779,4.9921382 -4.9921382,4.9921382 C 2.2364779,9.9842764 0,7.7477985 0,4.9921382 Z"
       copytype="single_stretched"
       prop_scale="1.2761784"
       scale_y_rel="false"
       spacing="0"
       normal_offset="0"
       tang_offset="0"
       prop_units="false"
       vertical_pattern="false"
       hide_knot="false"
       fuse_tolerance="0" /><linearGradient
       inkscape:collect="always"
       xlink:href="#linearGradient18"
       id="linearGradient19"
       x1="126.9295"
       y1="7.3617935"
       x2="127.17216"
       y2="128.60631"
       gradientUnits="userSpaceOnUse"
       gradientTransform="matrix(1.2888802,0,0,1.026998,-36.667446,-1.8157771)" /></defs><g
     inkscape:groupmode="layer"
     id="layer4"
     inkscape:label="Layer 4"><path
       style="display:inline;fill:#b5b500;fill-opacity:1;stroke:url(#linearGradient19);stroke-width:12.1781;stroke-linecap:round;stroke-linejoin:round;stroke-dasharray:none;stroke-opacity:1;paint-order:markers fill stroke"
       d="M 126.93077,6.6220852 126.92875,127.89"
       id="path17" /></g><g
     inkscape:groupmode="layer"
     id="layer2"
     inkscape:label="Layer 2"><g
       id="g1"
       transform="matrix(1.2493647,0,0,1.6182966,-14.893339,-47.623779)"><path
         style="fill:url(#linearGradient15-6);stroke:none;stroke-width:1.32292;stroke-linecap:round;stroke-linejoin:round;stroke-dasharray:none;paint-order:stroke markers fill"
         d="m 87.720685,31.083475 c 0.235322,1.49808 -6.78993,3.750947 -17.444765,9.022014 -5.42454,2.694751 -11.785633,6.166526 -18.433089,10.739733 -5.281298,3.646468 -10.864443,8.030146 -15.699424,13.263842 -3.884295,4.19641 -7.488315,8.962014 -9.410958,14.186901 -0.221872,0.994647 -0.390862,1.951105 -0.43529,2.810419 -0.03995,0.77279 0.02105,1.460932 0.22856,2.035586 0.222147,0.989515 0.765055,1.975642 1.462202,2.68005 1.389484,1.539299 3.867391,2.434044 6.077786,2.475541 6.913616,-0.111653 13.670384,-3.162211 18.907118,-6.830015 0,0 4e-6,-3e-6 4e-6,-3e-6 4.188549,-3.096845 7.329243,-5.325788 9.697857,-8.246692 0.900341,-1.196776 1.592148,-2.020422 1.769047,-2.757993 0.216596,-0.397917 0.230672,-1.025349 0.06389,-1.435766 0.09613,0.04802 0.227796,0.02052 0.428184,0.05266 0.147631,-0.0799 0.0026,-0.115015 -0.29309,-0.17899 0,0 -2e-6,10e-7 -2e-6,10e-7 -0.888716,-0.108207 -2.152993,0.38668 -3.323943,0.850753 -1.316043,0.566441 -2.417933,1.147425 -3.374651,1.70639 -0.339009,0.23734 -0.566402,0.302233 -0.648914,0.319287 0,0 -2.4e-5,-2.1e-5 -2.4e-5,-2.1e-5 l 0,0 c -0.428098,-0.355429 -0.787637,-0.869428 -1.074359,-1.525745 l 0,0 c 0,0 -1.3e-5,-5e-6 -1.3e-5,-5e-6 -0.101691,-0.03676 -0.197288,-0.06728 -0.273834,-0.114078 0,0 -10e-6,-6e-6 -10e-6,-6e-6 -0.120807,-0.07386 -0.233434,-0.171024 -0.341249,-0.264297 0,0 -9e-6,-8e-6 -9e-6,-8e-6 -0.234754,-0.203094 -0.441686,-0.41628 -0.620683,-0.631869 l 0,0 c 0.396717,-0.124283 0.911367,-0.275627 1.202473,-0.362037 0.03831,0.284826 0.569489,0.353421 1.515468,0.289672 0.01259,-0.06139 0.005,-0.08092 0.0026,-0.108585 -0.01978,-0.230633 0.112724,-0.114084 0.232726,0.134002 0.117892,0.566011 1.024121,0.912416 1.010003,1.31845 -0.0072,0.205703 -0.451787,1.09524 -2.008801,0.83947 -0.116381,0.145463 -0.263605,0.06682 -0.32344,-0.4523 -0.0074,-0.0641 -0.01068,-0.150339 -0.03497,-0.20554 0.851749,-0.04801 1.314969,0.105544 1.273989,0.449618 -0.280854,0.363043 -0.607179,0.725579 -0.984968,1.106868 l 0,0 c -0.266128,-0.161366 -0.561527,-0.320164 -0.892654,-0.482034 0,0 -1.3e-5,-6e-6 -1.3e-5,-6e-6 -0.152334,-0.07447 -0.314076,-0.144175 -0.480824,-0.234917 0,0 -1.4e-5,-7e-6 -1.4e-5,-7e-6 -0.105461,-0.05739 -0.196158,-0.129645 -0.287771,-0.195661 0,0 -1.2e-5,-8e-6 -1.2e-5,-8e-6 l 0,0 C 54.941151,70.615732 54.622577,70.04277 54.235384,69.629346 l 0,0 c 0,0 -2.2e-5,-2.4e-5 -2.2e-5,-2.4e-5 0.307563,-0.550207 0.605023,-0.944488 0.824218,-1.237941 0.791456,-1.080516 1.85188,-2.248247 3.220917,-3.394011 1.147521,-1.016611 2.839491,-2.193119 5.25108,-2.8485 1e-6,10e-7 6e-6,-1e-6 6e-6,-1e-6 0.974485,-0.271562 2.205533,-0.32741 3.654367,0.01521 1.436199,0.434962 2.681441,1.253704 3.57168,2.419231 1.504977,1.939995 2.345739,4.472948 2.04786,7.237314 -0.368025,2.612287 -1.332545,4.904245 -2.57045,6.737448 -2.824445,4.430287 -6.470712,7.965234 -10.539194,11.402849 0,-10e-7 -5e-6,4e-6 -5e-6,4e-6 -6.211719,5.396898 -14.891163,9.915677 -25.151205,10.652784 -5.476197,0.26057 -11.121414,-1.651177 -15.474243,-5.818066 -2.389052,-2.36248 -4.101197,-5.341098 -4.919856,-8.673482 -0.410664,-1.992273 -0.558485,-3.952963 -0.484713,-5.846054 0.08215,-2.10816 0.438003,-4.105314 0.989941,-5.941797 3.010519,-7.600327 7.72853,-13.833297 12.70071,-18.757362 6.026619,-5.951366 12.613538,-10.485736 18.769638,-13.939346 7.724638,-4.349636 15.054922,-7.201598 21.258895,-9.005562 12.401156,-3.62249 20.11256,-2.968943 20.335677,-1.548566 z"
         id="path12-6-9"
         inkscape:path-effect="#path-effect13-7-1"
         inkscape:original-d="m 87.720685,31.083475 c -22.964343,3.6073 -57.990033,21.736645 -67.026578,45.231663 -3.53343,12.928652 6.556542,18.341033 13.611064,18.140497 6.271241,-0.309513 14.912062,-3.10779 22.029162,-8.741399 8.078755,-6.394817 15.138561,-13.501569 11.296292,-18.909034 -3.462936,-4.873605 -13.522688,5.077996 -11.707062,3.940775 2.580093,-1.616046 -0.298348,-0.348713 3.020726,-0.233307"
         transform="rotate(180,58.600432,71.202995)"
         sodipodi:nodetypes="cccsssc" /><path
         style="fill:url(#linearGradient15);stroke:none;stroke-width:1.32292;stroke-linecap:round;stroke-linejoin:round;stroke-dasharray:none;paint-order:stroke markers fill"
         d="m 87.720685,31.083475 c 0.224028,1.426182 -6.775573,3.579479 -17.510585,8.851861 -5.412572,2.668884 -11.801577,6.142685 -18.47286,10.739816 -5.26861,3.64316 -10.863459,8.049923 -15.703305,13.327615 -3.864355,4.206455 -7.463386,9.011582 -9.357689,14.274761 -0.404896,1.884436 -0.619201,3.638372 -0.155254,4.86558 0.207527,0.861879 0.664694,1.732893 1.269693,2.40781 0.07433,0.08292 0.150765,0.162729 0.229082,0.239056 1.391489,1.494672 3.84141,2.348945 6.039884,2.351851 6.712015,-0.194236 13.334495,-3.211117 18.60564,-7.062795 4.476622,-3.40824 8.492374,-5.473023 11.033148,-7.976893 0.976577,-1.032688 1.735653,-1.796803 1.885117,-2.437922 0.380866,-0.551425 0.205073,-1.717354 -0.09608,-2.937888 1.003852,1.709363 2.165225,2.606844 3.548824,2.735284 1.086173,-0.0026 1.573576,-0.02105 1.498439,-0.124995 2.78e-4,-0.09142 -0.325184,0.09857 -0.976575,0.389053 -1.861517,0.919422 -3.749761,2.059551 -5.715019,3.122891 -2.297276,1.260047 -4.557491,2.392777 -7.091139,3.209412 -1.037959,0.362023 -2.298598,0.63439 -3.729223,0.681564 -1.243059,0.142103 -2.743571,-0.347466 -4.192207,-1.438579 -0.587888,-0.561172 -1.238351,-1.297674 -1.83887,-2.24143 -0.47258,-0.415461 -0.785708,-1.535839 -0.754458,-3.149604 0.490774,-1.574613 1.24925,-2.429919 2.06383,-2.678724 0.93494,-0.381681 1.658884,-0.484666 2.164283,-0.462954 0,0 4e-6,0 4e-6,0 1.766739,-0.02615 3.258807,0.305916 4.274572,0.578975 2.822178,0.723268 4.247271,1.564587 4.204352,2.16545 -0.04998,0.6997 -1.614988,1.10543 -4.386429,1.572517 -0.988104,0.168049 -2.398277,0.357158 -3.364668,0.714842 0,0 -2e-6,1e-6 -2e-6,1e-6 -0.316916,0.141979 -0.466361,0.201298 -0.317175,0.23874 0.310727,0.02235 0.587954,-0.381613 0.997865,-1.362275 -0.06764,-0.885566 0.01227,-1.288252 -0.0124,-1.074221 0.184022,0.1622 0.568348,0.361217 1.10376,0.737081 -0.437017,-0.252994 -0.574602,-0.516362 -0.421356,-0.4627 0.319704,-0.07701 0.748649,-0.344959 1.457994,-0.683461 1.67251,-0.873067 3.185401,-2.034333 5.274337,-3.554356 1.517929,-1.13284 3.473495,-2.671354 5.541748,-4.037517 0.550377,-0.410184 1.462303,-0.952716 2.824755,-1.471771 0.310803,-0.225099 1.205442,-0.350644 2.695367,-0.29864 1.65423,0.165027 3.074467,1.227302 4.182507,3.190689 1.221283,2.489225 1.820943,5.688446 1.112442,9.285995 -0.812171,3.015526 -2.304201,5.499754 -4.08235,7.335546 -4.030487,4.348448 -7.887956,6.662719 -11.547315,9.706302 -6.57526,5.526776 -15.392199,9.785898 -25.452684,10.420008 -5.564484,0.22355 -11.20483,-1.773443 -15.512144,-5.94176 -0.264726,-0.264571 -0.520899,-0.536555 -0.768262,-0.8156 -2.01386,-2.27179 -3.413041,-4.976235 -4.115021,-7.891066 -0.862957,-4.285089 -0.495419,-8.322246 0.556704,-11.768277 3.051764,-7.595208 7.797165,-13.791888 12.75398,-18.669501 6.048392,-5.934743 12.640682,-10.445751 18.765755,-13.875574 7.733167,-4.345802 15.04131,-7.192218 21.219125,-9.005477 12.415253,-3.659933 20.060647,-3.050566 20.269857,-1.71872 z"
         id="path12-6"
         inkscape:path-effect="#path-effect13-7"
         inkscape:original-d="m 87.720685,31.083475 c -22.964343,3.6073 -57.990033,21.736645 -67.026578,45.231663 -3.53343,12.928652 6.556542,18.341033 13.611064,18.140497 6.271241,-0.309513 14.912062,-3.10779 22.029162,-8.741399 8.078755,-6.394817 17.47196,-10.569352 13.669705,-19.840273 -0.876105,-2.136179 -15.273464,11.140077 -19.106126,7.946193 -5.565009,-4.637508 2.699858,-3.68938 8.046377,-3.307486"
         transform="translate(-1.4396734,0.24925517)"
         sodipodi:nodetypes="cccsssc" /><ellipse
         style="display:inline;fill:#4d4d4d;fill-opacity:1;stroke:none;stroke-width:0.56846;stroke-linecap:round;stroke-linejoin:round;stroke-dasharray:none;paint-order:stroke markers fill"
         id="path16"
         cx="-72.972122"
         cy="78.807053"
         rx="11.894747"
         ry="14.549042"
         transform="matrix(0.27140228,-0.962466,0.99999933,-0.00115449,0,0)" /></g></g></svg>
